<?xml version="1.0" encoding="UTF-8"?>
<!--Generator: Apple Native CoreSVG 123-->
<!DOCTYPE svg
PUBLIC "-//W3C//DTD SVG 1.1//EN"
       "http://www.w3.org/Graphics/SVG/1.1/DTD/svg11.dtd">
<svg version="1.1" xmlns="http://www.w3.org/2000/svg" xmlns:xlink="http://www.w3.org/1999/xlink" width="3300" height="2200">
 <!--glyph: "uni100228.medium", point size: 100.000000, font version: "Version 15.0d7e11", template writer version: "5"-->
 <g id="Notes">
  <rect height="2200" id="artboard" style="fill:white;opacity:1" width="3300" x="0" y="0"/>
  <line id="" style="fill:none;stroke:black;opacity:1;stroke-width:0.5;" x1="263" x2="3036" y1="292" y2="292"/>
  <text style="stroke:none;fill:black;font-family:-apple-system,&quot;SF Pro Display&quot;,&quot;SF Pro Text&quot;,Helvetica,sans-serif;font-weight:bold;" transform="matrix(1 0 0 1 263 322)">Weight/Scale Variations</text>
  <text style="stroke:none;fill:black;font-family:-apple-system,&quot;SF Pro Display&quot;,&quot;SF Pro Text&quot;,Helvetica,sans-serif;text-anchor:middle;" transform="matrix(1 0 0 1 559.711 322)">Ultralight</text>
  <text style="stroke:none;fill:black;font-family:-apple-system,&quot;SF Pro Display&quot;,&quot;SF Pro Text&quot;,Helvetica,sans-serif;text-anchor:middle;" transform="matrix(1 0 0 1 856.422 322)">Thin</text>
  <text style="stroke:none;fill:black;font-family:-apple-system,&quot;SF Pro Display&quot;,&quot;SF Pro Text&quot;,Helvetica,sans-serif;text-anchor:middle;" transform="matrix(1 0 0 1 1153.13 322)">Light</text>
  <text style="stroke:none;fill:black;font-family:-apple-system,&quot;SF Pro Display&quot;,&quot;SF Pro Text&quot;,Helvetica,sans-serif;text-anchor:middle;" transform="matrix(1 0 0 1 1449.84 322)">Regular</text>
  <text style="stroke:none;fill:black;font-family:-apple-system,&quot;SF Pro Display&quot;,&quot;SF Pro Text&quot;,Helvetica,sans-serif;text-anchor:middle;" transform="matrix(1 0 0 1 1746.56 322)">Medium</text>
  <text style="stroke:none;fill:black;font-family:-apple-system,&quot;SF Pro Display&quot;,&quot;SF Pro Text&quot;,Helvetica,sans-serif;text-anchor:middle;" transform="matrix(1 0 0 1 2043.27 322)">Semibold</text>
  <text style="stroke:none;fill:black;font-family:-apple-system,&quot;SF Pro Display&quot;,&quot;SF Pro Text&quot;,Helvetica,sans-serif;text-anchor:middle;" transform="matrix(1 0 0 1 2339.98 322)">Bold</text>
  <text style="stroke:none;fill:black;font-family:-apple-system,&quot;SF Pro Display&quot;,&quot;SF Pro Text&quot;,Helvetica,sans-serif;text-anchor:middle;" transform="matrix(1 0 0 1 2636.69 322)">Heavy</text>
  <text style="stroke:none;fill:black;font-family:-apple-system,&quot;SF Pro Display&quot;,&quot;SF Pro Text&quot;,Helvetica,sans-serif;text-anchor:middle;" transform="matrix(1 0 0 1 2933.4 322)">Black</text>
  <line id="" style="fill:none;stroke:black;opacity:1;stroke-width:0.5;" x1="263" x2="3036" y1="1903" y2="1903"/>
  <g id="" transform="matrix(1 0 0 1 263 1933)">
   <path d="M 9.24805 0.830078 C 13.5547 0.830078 17.1387 -2.74414 17.1387 -7.05078 C 17.1387 -11.3574 13.5449 -14.9316 9.23828 -14.9316 C 4.94141 -14.9316 1.36719 -11.3574 1.36719 -7.05078 C 1.36719 -2.74414 4.95117 0.830078 9.24805 0.830078 Z M 9.24805 -0.654297 C 5.70312 -0.654297 2.87109 -3.49609 2.87109 -7.05078 C 2.87109 -10.6055 5.69336 -13.4473 9.23828 -13.4473 C 12.793 -13.4473 15.6348 -10.6055 15.6445 -7.05078 C 15.6543 -3.49609 12.8027 -0.654297 9.24805 -0.654297 Z M 9.22852 -3.42773 C 9.69727 -3.42773 9.9707 -3.74023 9.9707 -4.25781 L 9.9707 -6.31836 L 12.1973 -6.31836 C 12.6953 -6.31836 13.0371 -6.57227 13.0371 -7.04102 C 13.0371 -7.51953 12.7148 -7.7832 12.1973 -7.7832 L 9.9707 -7.7832 L 9.9707 -10.0098 C 9.9707 -10.5273 9.69727 -10.8496 9.22852 -10.8496 C 8.75977 -10.8496 8.50586 -10.5078 8.50586 -10.0098 L 8.50586 -7.7832 L 6.29883 -7.7832 C 5.78125 -7.7832 5.44922 -7.51953 5.44922 -7.04102 C 5.44922 -6.57227 5.80078 -6.31836 6.29883 -6.31836 L 8.50586 -6.31836 L 8.50586 -4.25781 C 8.50586 -3.75977 8.75977 -3.42773 9.22852 -3.42773 Z"/>
  </g>
  <g id="" transform="matrix(1 0 0 1 281.506 1933)">
   <path d="M 11.709 2.91016 C 17.1582 2.91016 21.6699 -1.60156 21.6699 -7.05078 C 21.6699 -12.4902 17.1484 -17.0117 11.6992 -17.0117 C 6.25977 -17.0117 1.74805 -12.4902 1.74805 -7.05078 C 1.74805 -1.60156 6.26953 2.91016 11.709 2.91016 Z M 11.709 1.25 C 7.09961 1.25 3.41797 -2.44141 3.41797 -7.05078 C 3.41797 -11.6504 7.08984 -15.3516 11.6992 -15.3516 C 16.3086 -15.3516 20 -11.6504 20.0098 -7.05078 C 20.0195 -2.44141 16.3184 1.25 11.709 1.25 Z M 11.6895 -2.41211 C 12.207 -2.41211 12.5195 -2.77344 12.5195 -3.33984 L 12.5195 -6.23047 L 15.5762 -6.23047 C 16.123 -6.23047 16.5039 -6.51367 16.5039 -7.03125 C 16.5039 -7.55859 16.1426 -7.86133 15.5762 -7.86133 L 12.5195 -7.86133 L 12.5195 -10.9277 C 12.5195 -11.5039 12.207 -11.8555 11.6895 -11.8555 C 11.1719 -11.8555 10.8789 -11.4844 10.8789 -10.9277 L 10.8789 -7.86133 L 7.83203 -7.86133 C 7.26562 -7.86133 6.89453 -7.55859 6.89453 -7.03125 C 6.89453 -6.51367 7.28516 -6.23047 7.83203 -6.23047 L 10.8789 -6.23047 L 10.8789 -3.33984 C 10.8789 -2.79297 11.1719 -2.41211 11.6895 -2.41211 Z"/>
  </g>
  <g id="" transform="matrix(1 0 0 1 304.924 1933)">
   <path d="M 14.9707 5.67383 C 21.9336 5.67383 27.6953 -0.078125 27.6953 -7.04102 C 27.6953 -14.0039 21.9238 -19.7559 14.9609 -19.7559 C 8.00781 -19.7559 2.25586 -14.0039 2.25586 -7.04102 C 2.25586 -0.078125 8.01758 5.67383 14.9707 5.67383 Z M 14.9707 3.85742 C 8.93555 3.85742 4.08203 -1.00586 4.08203 -7.04102 C 4.08203 -13.0762 8.92578 -17.9395 14.9609 -17.9395 C 21.0059 -17.9395 25.8594 -13.0762 25.8691 -7.04102 C 25.8789 -1.00586 21.0156 3.85742 14.9707 3.85742 Z M 14.9512 -1.06445 C 15.5176 -1.06445 15.8691 -1.45508 15.8691 -2.06055 L 15.8691 -6.13281 L 20.1074 -6.13281 C 20.6934 -6.13281 21.1133 -6.46484 21.1133 -7.02148 C 21.1133 -7.59766 20.7227 -7.93945 20.1074 -7.93945 L 15.8691 -7.93945 L 15.8691 -12.1875 C 15.8691 -12.8027 15.5176 -13.1934 14.9512 -13.1934 C 14.3848 -13.1934 14.0625 -12.7832 14.0625 -12.1875 L 14.0625 -7.93945 L 9.83398 -7.93945 C 9.21875 -7.93945 8.80859 -7.59766 8.80859 -7.02148 C 8.80859 -6.46484 9.23828 -6.13281 9.83398 -6.13281 L 14.0625 -6.13281 L 14.0625 -2.06055 C 14.0625 -1.47461 14.3848 -1.06445 14.9512 -1.06445 Z"/>
  </g>
  <text style="stroke:none;fill:black;font-family:-apple-system,&quot;SF Pro Display&quot;,&quot;SF Pro Text&quot;,Helvetica,sans-serif;font-weight:bold;" transform="matrix(1 0 0 1 263 1953)">Design Variations</text>
  <text style="stroke:none;fill:black;font-family:-apple-system,&quot;SF Pro Display&quot;,&quot;SF Pro Text&quot;,Helvetica,sans-serif;" transform="matrix(1 0 0 1 263 1971)">Symbols are supported in up to nine weights and three scales.</text>
  <text style="stroke:none;fill:black;font-family:-apple-system,&quot;SF Pro Display&quot;,&quot;SF Pro Text&quot;,Helvetica,sans-serif;" transform="matrix(1 0 0 1 263 1989)">For optimal layout with text and other symbols, vertically align</text>
  <text style="stroke:none;fill:black;font-family:-apple-system,&quot;SF Pro Display&quot;,&quot;SF Pro Text&quot;,Helvetica,sans-serif;" transform="matrix(1 0 0 1 263 2007)">symbols with the adjacent text.</text>
  <rect height="14" id="" style="fill:#00AEEF;stroke:none;opacity:0.4;" width="3" x="776" y="1919"/>
  <g id="" transform="matrix(1 0 0 1 779 1933)">
   <path d="M 10.5273 0 L 12.373 0 L 7.17773 -14.0918 L 5.43945 -14.0918 L 0.244141 0 L 2.08984 0 L 3.50586 -4.0332 L 9.11133 -4.0332 Z M 6.2793 -11.9531 L 6.33789 -11.9531 L 8.59375 -5.52734 L 4.02344 -5.52734 Z"/>
  </g>
  <rect height="14" id="" style="fill:#00AEEF;stroke:none;opacity:0.4;" width="3" x="791.617" y="1919"/>
  <text style="stroke:none;fill:black;font-family:-apple-system,&quot;SF Pro Display&quot;,&quot;SF Pro Text&quot;,Helvetica,sans-serif;font-weight:bold;" transform="matrix(1 0 0 1 776 1953)">Margins</text>
  <text style="stroke:none;fill:black;font-family:-apple-system,&quot;SF Pro Display&quot;,&quot;SF Pro Text&quot;,Helvetica,sans-serif;" transform="matrix(1 0 0 1 776 1971)">Leading and trailing margins on the left and right side of each symbol</text>
  <text style="stroke:none;fill:black;font-family:-apple-system,&quot;SF Pro Display&quot;,&quot;SF Pro Text&quot;,Helvetica,sans-serif;" transform="matrix(1 0 0 1 776 1989)">can be adjusted by modifying the width of the blue rectangles.</text>
  <text style="stroke:none;fill:black;font-family:-apple-system,&quot;SF Pro Display&quot;,&quot;SF Pro Text&quot;,Helvetica,sans-serif;" transform="matrix(1 0 0 1 776 2007)">Modifications are automatically applied proportionally to all</text>
  <text style="stroke:none;fill:black;font-family:-apple-system,&quot;SF Pro Display&quot;,&quot;SF Pro Text&quot;,Helvetica,sans-serif;" transform="matrix(1 0 0 1 776 2025)">scales and weights.</text>
  <g id="" transform="matrix(1 0 0 1 1289 1933)">
   <path d="M 2.83203 3.11523 L 4.375 4.6582 C 5.22461 5.48828 6.19141 5.41992 7.06055 4.46289 L 17.2754 -6.66016 C 17.7051 -6.36719 18.0957 -6.37695 18.5645 -6.47461 L 19.6094 -6.68945 L 20.3027 -5.99609 L 20.2539 -5.47852 C 20.1855 -4.95117 20.3516 -4.53125 20.8496 -4.0332 L 21.6602 -3.22266 C 22.168 -2.71484 22.8223 -2.68555 23.3008 -3.16406 L 26.5527 -6.41602 C 27.0312 -6.89453 27.0117 -7.54883 26.5039 -8.05664 L 25.6836 -8.87695 C 25.1855 -9.375 24.7754 -9.55078 24.2383 -9.47266 L 23.7109 -9.41406 L 23.0566 -10.0781 L 23.3398 -11.2207 C 23.4863 -11.7871 23.3398 -12.2559 22.7148 -12.8613 L 20.3027 -15.2539 C 16.7578 -18.7793 12.2266 -18.6719 9.11133 -15.5371 C 8.69141 -15.1074 8.64258 -14.5215 8.91602 -14.0918 C 9.15039 -13.7207 9.62891 -13.4961 10.2734 -13.6621 C 11.7871 -14.043 13.3008 -13.9258 14.7852 -12.9199 L 14.1602 -11.3379 C 13.9258 -10.752 13.9453 -10.2734 14.1797 -9.83398 L 3.01758 0.439453 C 2.08008 1.30859 1.97266 2.25586 2.83203 3.11523 Z M 10.6738 -15.1465 C 13.3398 -17.1387 16.6504 -16.8262 19.0527 -14.4141 L 21.6797 -11.8066 C 21.9141 -11.5723 21.9434 -11.3867 21.8848 -11.0938 L 21.5039 -9.53125 L 23.0762 -7.95898 L 24.043 -8.04688 C 24.3262 -8.07617 24.4141 -8.05664 24.6387 -7.83203 L 25.2637 -7.20703 L 22.5098 -4.46289 L 21.8848 -5.07812 C 21.6602 -5.30273 21.6406 -5.40039 21.6699 -5.68359 L 21.7578 -6.64062 L 20.1953 -8.20312 L 18.5742 -7.89062 C 18.291 -7.83203 18.1445 -7.83203 17.9102 -8.07617 L 15.7324 -10.2539 C 15.5078 -10.4883 15.4785 -10.625 15.6055 -10.9473 L 16.5527 -13.2227 C 14.9512 -14.7559 12.8418 -15.6055 10.8008 -14.9512 C 10.7129 -14.9219 10.6445 -14.9414 10.6152 -14.9805 C 10.5859 -15.0293 10.5859 -15.0781 10.6738 -15.1465 Z M 4.10156 2.41211 C 3.61328 1.91406 3.78906 1.61133 4.12109 1.30859 L 15.0781 -8.80859 L 16.3086 -7.57812 L 6.15234 3.34961 C 5.84961 3.68164 5.46875 3.7793 5.06836 3.37891 Z"/>
  </g>
  <text style="stroke:none;fill:black;font-family:-apple-system,&quot;SF Pro Display&quot;,&quot;SF Pro Text&quot;,Helvetica,sans-serif;font-weight:bold;" transform="matrix(1 0 0 1 1289 1953)">Exporting</text>
  <text style="stroke:none;fill:black;font-family:-apple-system,&quot;SF Pro Display&quot;,&quot;SF Pro Text&quot;,Helvetica,sans-serif;" transform="matrix(1 0 0 1 1289 1971)">Symbols should be outlined when exporting to ensure the</text>
  <text style="stroke:none;fill:black;font-family:-apple-system,&quot;SF Pro Display&quot;,&quot;SF Pro Text&quot;,Helvetica,sans-serif;" transform="matrix(1 0 0 1 1289 1989)">design is preserved when submitting to Xcode.</text>
  <text id="template-version" style="stroke:none;fill:black;font-family:-apple-system,&quot;SF Pro Display&quot;,&quot;SF Pro Text&quot;,Helvetica,sans-serif;text-anchor:end;" transform="matrix(1 0 0 1 3036 1933)">Template v.1.0</text>
  <text style="stroke:none;fill:black;font-family:-apple-system,&quot;SF Pro Display&quot;,&quot;SF Pro Text&quot;,Helvetica,sans-serif;text-anchor:end;" transform="matrix(1 0 0 1 3036 1951)">Generated from tray.and.arrow.down.fill</text>
  <text style="stroke:none;fill:black;font-family:-apple-system,&quot;SF Pro Display&quot;,&quot;SF Pro Text&quot;,Helvetica,sans-serif;text-anchor:end;" transform="matrix(1 0 0 1 3036 1969)">Typeset at 100 points</text>
  <text style="stroke:none;fill:black;font-family:-apple-system,&quot;SF Pro Display&quot;,&quot;SF Pro Text&quot;,Helvetica,sans-serif;" transform="matrix(1 0 0 1 263 726)">Small</text>
  <text style="stroke:none;fill:black;font-family:-apple-system,&quot;SF Pro Display&quot;,&quot;SF Pro Text&quot;,Helvetica,sans-serif;" transform="matrix(1 0 0 1 263 1156)">Medium</text>
  <text style="stroke:none;fill:black;font-family:-apple-system,&quot;SF Pro Display&quot;,&quot;SF Pro Text&quot;,Helvetica,sans-serif;" transform="matrix(1 0 0 1 263 1586)">Large</text>
 </g>
 <g id="Guides">
  <g id="H-reference" style="fill:#27AAE1;stroke:none;" transform="matrix(1 0 0 1 339 696)">
   <path d="M 54.9316 0 L 57.666 0 L 30.5664 -70.459 L 28.0762 -70.459 L 0.976562 0 L 3.66211 0 L 12.9395 -24.4629 L 45.7031 -24.4629 Z M 29.1992 -67.0898 L 29.4434 -67.0898 L 44.8242 -26.709 L 13.8184 -26.709 Z"/>
  </g>
  <line id="Baseline-S" style="fill:none;stroke:#27AAE1;opacity:1;stroke-width:0.577;" x1="263" x2="3036" y1="696" y2="696"/>
  <line id="Capline-S" style="fill:none;stroke:#27AAE1;opacity:1;stroke-width:0.577;" x1="263" x2="3036" y1="625.541" y2="625.541"/>
  <g id="H-reference" style="fill:#27AAE1;stroke:none;" transform="matrix(1 0 0 1 339 1126)">
   <path d="M 54.9316 0 L 57.666 0 L 30.5664 -70.459 L 28.0762 -70.459 L 0.976562 0 L 3.66211 0 L 12.9395 -24.4629 L 45.7031 -24.4629 Z M 29.1992 -67.0898 L 29.4434 -67.0898 L 44.8242 -26.709 L 13.8184 -26.709 Z"/>
  </g>
  <line id="Baseline-M" style="fill:none;stroke:#27AAE1;opacity:1;stroke-width:0.577;" x1="263" x2="3036" y1="1126" y2="1126"/>
  <line id="Capline-M" style="fill:none;stroke:#27AAE1;opacity:1;stroke-width:0.577;" x1="263" x2="3036" y1="1055.54" y2="1055.54"/>
  <g id="H-reference" style="fill:#27AAE1;stroke:none;" transform="matrix(1 0 0 1 339 1556)">
   <path d="M 54.9316 0 L 57.666 0 L 30.5664 -70.459 L 28.0762 -70.459 L 0.976562 0 L 3.66211 0 L 12.9395 -24.4629 L 45.7031 -24.4629 Z M 29.1992 -67.0898 L 29.4434 -67.0898 L 44.8242 -26.709 L 13.8184 -26.709 Z"/>
  </g>
  <line id="Baseline-L" style="fill:none;stroke:#27AAE1;opacity:1;stroke-width:0.577;" x1="263" x2="3036" y1="1556" y2="1556"/>
  <line id="Capline-L" style="fill:none;stroke:#27AAE1;opacity:1;stroke-width:0.577;" x1="263" x2="3036" y1="1485.54" y2="1485.54"/>
  <rect height="119.336" id="left-margin" style="fill:#00AEEF;stroke:none;opacity:0.4;" width="12.4512" x="1379.82" y="1030.79"/>
  <rect height="119.336" id="right-margin" style="fill:#00AEEF;stroke:none;opacity:0.4;" width="12.4512" x="1507.41" y="1030.79"/>
 </g>
 <g id="Symbols">
  <g id="Black-L" transform="matrix(1 0 0 1 2841.51 1556)">
   <path d="M 91.8945 -29.0039 C 94.2871 -29.0039 96.6797 -29.834 99.0234 -32.1289 L 119.58 -51.7578 C 121.045 -53.2227 121.875 -54.7852 121.875 -56.9824 C 121.875 -61.2793 118.164 -64.209 114.355 -64.209 C 112.158 -64.209 110.156 -63.2812 108.691 -61.7188 L 102.393 -55.0293 L 99.9023 -50.0977 L 100.684 -59.2773 L 100.684 -106.982 C 100.684 -111.621 96.875 -115.674 91.8945 -115.674 C 86.9141 -115.674 83.0566 -111.621 83.0566 -106.982 L 83.0566 -59.2773 L 83.8379 -50.0977 L 81.3477 -55.0293 L 75.0977 -61.7188 C 73.6328 -63.2812 71.6309 -64.209 69.3848 -64.209 C 65.5762 -64.209 61.9141 -61.2793 61.9141 -56.9824 C 61.9141 -54.7852 62.7441 -53.2227 64.209 -51.7578 L 84.7168 -32.1289 C 87.0605 -29.834 89.502 -29.0039 91.8945 -29.0039 Z M 39.9902 33.1055 L 143.799 33.1055 C 159.082 33.1055 167.725 24.5117 167.725 9.32617 L 167.725 -22.6074 C 167.725 -31.1523 166.943 -35.1074 163.672 -40.9668 L 145.801 -72.5098 C 138.33 -85.5957 132.178 -87.9883 119.287 -87.9883 L 112.109 -87.9883 L 112.109 -72.8516 L 119.531 -72.8516 C 123.291 -72.8516 126.172 -71.4355 128.174 -67.9199 L 146.289 -33.7402 C 147.412 -31.8848 146.875 -30.8105 144.336 -30.8105 L 111.035 -30.8105 C 106.689 -30.8105 105.078 -28.5645 105.078 -25.9277 L 105.078 -25.7324 C 105.078 -19.6289 100.391 -12.4512 91.8945 -12.4512 C 83.3496 -12.4512 78.7109 -19.6289 78.7109 -25.7324 L 78.7109 -25.9277 C 78.7109 -28.5645 77.0508 -30.8105 72.7539 -30.8105 L 39.4531 -30.8105 C 36.8652 -30.8105 36.4258 -31.9824 37.5 -33.7402 L 55.5664 -67.8711 C 57.6172 -71.3867 60.498 -72.8516 64.209 -72.8516 L 71.6797 -72.8516 L 71.6797 -87.9883 L 64.502 -87.9883 C 51.6113 -87.9883 45.459 -85.5957 37.9395 -72.4121 L 20.0684 -40.9668 C 16.8457 -35.1074 16.0645 -31.1523 16.0645 -22.6074 L 16.0645 9.32617 C 16.0645 24.5117 24.7559 33.1055 39.9902 33.1055 Z"/>
  </g>
  <g id="Heavy-L" transform="matrix(1 0 0 1 2545.23 1556)">
   <path d="M 91.4551 -28.125 C 93.5547 -28.125 95.6055 -28.8574 97.6562 -30.8105 L 118.506 -50.8301 C 119.824 -52.1484 120.557 -53.5645 120.557 -55.5176 C 120.557 -59.2773 117.334 -61.9141 113.867 -61.9141 C 111.914 -61.9141 110.156 -61.084 108.838 -59.7168 L 101.66 -52.0508 L 98.5352 -47.0215 L 99.2188 -56.25 L 99.2188 -107.471 C 99.2188 -111.572 95.8008 -115.088 91.4551 -115.088 C 87.1094 -115.088 83.6914 -111.572 83.6914 -107.471 L 83.6914 -56.25 L 84.375 -47.0215 L 81.25 -52.0508 L 74.0234 -59.7168 C 72.7539 -61.084 70.9473 -61.9141 68.9941 -61.9141 C 65.5273 -61.9141 62.3535 -59.2773 62.3535 -55.5176 C 62.3535 -53.5645 63.0859 -52.1484 64.4043 -50.8301 L 85.2539 -30.8105 C 87.3047 -28.8574 89.3555 -28.125 91.4551 -28.125 Z M 38.8184 32.5195 L 144.092 32.5195 C 158.74 32.5195 166.846 24.4141 166.846 9.91211 L 166.846 -22.6562 C 166.846 -30.3711 166.064 -33.9844 162.988 -39.209 L 144.043 -70.1172 C 136.67 -82.2266 131.25 -84.5215 118.945 -84.5215 L 110.986 -84.5215 L 110.986 -71.1426 L 119.287 -71.1426 C 123.291 -71.1426 126.221 -69.8242 128.564 -66.1133 L 147.852 -32.959 C 149.219 -30.9082 148.633 -29.7852 145.996 -29.7852 L 110.938 -29.7852 C 106.885 -29.7852 105.322 -27.5391 105.322 -24.9023 L 105.322 -24.707 C 105.322 -18.0664 100.195 -10.6445 91.4551 -10.6445 C 82.666 -10.6445 77.5879 -18.0664 77.5879 -24.707 L 77.5879 -24.9023 C 77.5879 -27.5391 75.9766 -29.7852 71.9727 -29.7852 L 36.9629 -29.7852 C 34.2285 -29.7852 33.7891 -31.0059 35.0586 -32.959 L 54.2969 -66.0156 C 56.6895 -69.8242 59.6191 -71.1426 63.623 -71.1426 L 71.9238 -71.1426 L 71.9238 -84.5215 L 63.9648 -84.5215 C 51.6602 -84.5215 46.2402 -82.2266 38.8184 -70.0195 L 19.9219 -39.209 C 16.8457 -33.9844 16.0645 -30.3711 16.0645 -22.6562 L 16.0645 9.91211 C 16.0645 24.4629 24.2188 32.5195 38.8184 32.5195 Z"/>
  </g>
  <g id="Bold-L" transform="matrix(1 0 0 1 2249.01 1556)">
   <path d="M 90.9668 -27.0996 C 92.7246 -27.0996 94.3848 -27.6855 96.0938 -29.3945 L 117.285 -49.8047 C 118.408 -50.9766 119.043 -52.1973 119.043 -53.8574 C 119.043 -57.0801 116.357 -59.3262 113.33 -59.3262 C 111.719 -59.3262 110.156 -58.6914 109.033 -57.4707 L 100.781 -48.7305 L 96.9727 -43.6035 L 97.5098 -52.832 L 97.5098 -108.008 C 97.5098 -111.475 94.6289 -114.453 90.9668 -114.453 C 87.3535 -114.453 84.4238 -111.475 84.4238 -108.008 L 84.4238 -52.832 L 84.9609 -43.6035 L 81.1523 -48.7305 L 72.9004 -57.4707 C 71.7773 -58.6914 70.166 -59.3262 68.5547 -59.3262 C 65.5273 -59.3262 62.8906 -57.0801 62.8906 -53.8574 C 62.8906 -52.1973 63.5254 -50.9766 64.6484 -49.8047 L 85.8398 -29.3945 C 87.5488 -27.6855 89.209 -27.0996 90.9668 -27.0996 Z M 37.5 31.8848 L 144.385 31.8848 C 158.35 31.8848 165.869 24.3652 165.869 10.5469 L 165.869 -22.7051 C 165.869 -29.541 165.088 -32.7148 162.207 -37.2559 L 142.041 -67.4805 C 134.814 -78.5156 130.225 -80.6152 118.506 -80.6152 L 109.766 -80.6152 L 109.766 -69.2383 L 118.994 -69.2383 C 123.291 -69.2383 126.27 -68.0664 128.955 -64.0625 L 149.561 -32.0801 C 151.172 -29.7363 150.586 -28.6133 147.803 -28.6133 L 110.84 -28.6133 C 107.129 -28.6133 105.566 -26.3672 105.566 -23.7793 L 105.566 -23.5352 C 105.566 -16.3086 100 -8.69141 90.9668 -8.69141 C 81.8848 -8.69141 76.3672 -16.3086 76.3672 -23.5352 L 76.3672 -23.7793 C 76.3672 -26.3672 74.8047 -28.6133 71.0938 -28.6133 L 34.1309 -28.6133 C 31.2988 -28.6133 30.8105 -29.8828 32.373 -32.0801 L 52.8809 -63.9648 C 55.6641 -68.0176 58.6426 -69.2383 62.8906 -69.2383 L 72.2168 -69.2383 L 72.2168 -80.6152 L 63.3789 -80.6152 C 51.709 -80.6152 47.1191 -78.5156 39.7949 -67.334 L 19.6777 -37.2559 C 16.7969 -32.7148 16.0645 -29.541 16.0645 -22.7051 L 16.0645 10.5469 C 16.0645 24.4141 23.6328 31.8848 37.5 31.8848 Z"/>
  </g>
  <g id="Semibold-L" transform="matrix(1 0 0 1 1952.64 1556)">
   <path d="M 90.625 -26.416 C 92.1387 -26.416 93.5547 -26.9043 95.0195 -28.3691 L 116.455 -49.1211 C 117.48 -50.1465 118.066 -51.2207 118.066 -52.6855 C 118.066 -55.5664 115.723 -57.5684 112.988 -57.5684 C 111.572 -57.5684 110.156 -56.9824 109.18 -55.9082 L 100.195 -46.4355 L 95.8984 -41.2598 L 96.3379 -50.4883 L 96.3379 -108.398 C 96.3379 -111.426 93.7988 -114.014 90.625 -114.014 C 87.5 -114.014 84.9121 -111.426 84.9121 -108.398 L 84.9121 -50.4883 L 85.4004 -41.2109 L 81.1035 -46.4355 L 72.0703 -55.9082 C 71.0938 -56.9824 69.6289 -57.5684 68.2617 -57.5684 C 65.4785 -57.5684 63.2324 -55.5664 63.2324 -52.6855 C 63.2324 -51.2207 63.7695 -50.1465 64.7949 -49.1211 L 86.2305 -28.3691 C 87.7441 -26.9043 89.1113 -26.416 90.625 -26.416 Z M 36.6211 31.3965 L 144.629 31.3965 C 158.057 31.3965 165.186 24.3164 165.186 10.9863 L 165.186 -22.7051 C 165.186 -28.9551 164.453 -31.8848 161.67 -35.9375 L 140.674 -65.625 C 133.545 -75.8789 129.492 -77.9297 118.262 -77.9297 L 108.887 -77.9297 L 108.887 -67.9199 L 118.848 -67.9199 C 123.291 -67.9199 126.27 -66.8457 129.297 -62.6953 L 150.781 -31.4453 C 152.588 -28.9551 151.904 -27.832 149.072 -27.832 L 110.742 -27.832 C 107.275 -27.832 105.762 -25.5371 105.762 -22.998 L 105.762 -22.7051 C 105.762 -15.0879 99.9023 -7.32422 90.625 -7.32422 C 81.3477 -7.32422 75.4883 -15.0879 75.4883 -22.7051 L 75.4883 -22.998 C 75.4883 -25.5371 73.9746 -27.832 70.459 -27.832 L 32.2266 -27.832 C 29.2969 -27.832 28.8086 -29.1504 30.4688 -31.4453 L 51.9043 -62.5488 C 54.9805 -66.7969 57.959 -67.9199 62.4023 -67.9199 L 72.3633 -67.9199 L 72.3633 -77.9297 L 62.9883 -77.9297 C 51.7578 -77.9297 47.7539 -75.8789 40.4785 -65.5273 L 19.5801 -35.9375 C 16.7969 -31.8848 16.0645 -28.9551 16.0645 -22.7051 L 16.0645 10.9863 C 16.0645 24.3652 23.1934 31.3965 36.6211 31.3965 Z"/>
  </g>
  <g id="Medium-L" transform="matrix(1 0 0 1 1656.2 1556)">
   <path d="M 90.3809 -25.8789 C 91.6992 -25.8789 92.9199 -26.3184 94.2383 -27.5879 L 115.82 -48.584 C 116.748 -49.5117 117.285 -50.4883 117.285 -51.8555 C 117.285 -54.3945 115.186 -56.25 112.695 -56.25 C 111.475 -56.25 110.156 -55.7129 109.277 -54.7363 L 99.707 -44.6777 L 95.0684 -39.4531 L 95.459 -48.6816 L 95.459 -108.643 C 95.459 -111.377 93.1641 -113.672 90.3809 -113.672 C 87.5977 -113.672 85.3027 -111.377 85.3027 -108.643 L 85.3027 -48.6816 L 85.6934 -39.4531 L 81.0547 -44.6777 L 71.4844 -54.7363 C 70.6055 -55.7129 69.2383 -56.25 68.0176 -56.25 C 65.4785 -56.25 63.4766 -54.3945 63.4766 -51.8555 C 63.4766 -50.4883 64.0137 -49.5117 64.9414 -48.584 L 86.5723 -27.5879 C 87.8418 -26.3184 89.0625 -25.8789 90.3809 -25.8789 Z M 35.9375 31.0547 L 144.775 31.0547 C 157.861 31.0547 164.648 24.2676 164.648 11.3281 L 164.648 -22.7539 C 164.648 -28.5156 163.916 -31.2012 161.279 -34.9121 L 139.648 -64.2578 C 132.568 -73.9258 128.955 -75.8789 118.066 -75.8789 L 108.252 -75.8789 L 108.252 -66.9434 L 118.701 -66.9434 C 123.291 -66.9434 126.318 -65.918 129.492 -61.6211 L 151.66 -31.0059 C 153.613 -28.3691 152.93 -27.2461 150 -27.2461 L 110.693 -27.2461 C 107.422 -27.2461 105.859 -24.9512 105.859 -22.3633 L 105.859 -22.1191 C 105.859 -14.1602 99.7559 -6.25 90.3809 -6.25 C 80.957 -6.25 74.8535 -14.1602 74.8535 -22.1191 L 74.8535 -22.3633 C 74.8535 -24.9512 73.3398 -27.2461 70.0195 -27.2461 L 30.7617 -27.2461 C 27.7344 -27.2461 27.2461 -28.5645 29.0527 -31.0059 L 51.123 -61.4746 C 54.3945 -65.8691 57.4707 -66.9434 62.0605 -66.9434 L 72.5098 -66.9434 L 72.5098 -75.8789 L 62.6953 -75.8789 C 51.7578 -75.8789 48.1934 -73.9258 41.0156 -64.1113 L 19.4336 -34.9121 C 16.7969 -31.2012 16.0645 -28.5156 16.0645 -22.7539 L 16.0645 11.3281 C 16.0645 24.3164 22.9004 31.0547 35.9375 31.0547 Z"/>
  </g>
  <g id="Regular-L" transform="matrix(1 0 0 1 1359.81 1556)">
   <path d="M 90.0391 -25.1953 C 91.1621 -25.1953 92.0898 -25.5371 93.1641 -26.6113 L 114.99 -47.8516 C 115.82 -48.6816 116.26 -49.5605 116.26 -50.6836 C 116.26 -52.8809 114.551 -54.4922 112.354 -54.4922 C 111.279 -54.4922 110.156 -54.0527 109.424 -53.1738 L 99.1211 -42.4316 L 93.9941 -37.1094 L 94.3359 -46.3867 L 94.3359 -109.033 C 94.3359 -111.279 92.3828 -113.184 90.0391 -113.184 C 87.7441 -113.184 85.791 -111.279 85.791 -109.033 L 85.791 -46.3867 L 86.1328 -37.1094 L 80.957 -42.4316 L 70.7031 -53.1738 C 69.9219 -54.0527 68.75 -54.4922 67.6758 -54.4922 C 65.4785 -54.4922 63.8184 -52.8809 63.8184 -50.6836 C 63.8184 -49.5605 64.3066 -48.6816 65.0879 -47.8516 L 86.9629 -26.6113 C 88.0371 -25.5371 88.9648 -25.1953 90.0391 -25.1953 Z M 35.0586 30.6152 L 144.971 30.6152 C 157.617 30.6152 164.014 24.2188 164.014 11.7676 L 164.014 -22.8027 C 164.014 -27.9297 163.281 -30.3711 160.742 -33.5938 L 138.281 -62.4512 C 131.299 -71.3867 128.271 -73.2422 117.773 -73.2422 L 107.422 -73.2422 L 107.422 -65.625 L 118.506 -65.625 C 123.291 -65.625 126.367 -64.6973 129.785 -60.2051 L 152.832 -30.4199 C 154.98 -27.6367 154.297 -26.416 151.27 -26.416 L 110.645 -26.416 C 107.568 -26.416 106.055 -24.1211 106.055 -21.582 L 106.055 -21.2891 C 106.055 -12.9883 99.6582 -4.88281 90.0391 -4.88281 C 80.4199 -4.88281 74.0234 -12.9883 74.0234 -21.2891 L 74.0234 -21.582 C 74.0234 -24.1211 72.5098 -26.416 69.4336 -26.416 L 28.8574 -26.416 C 25.7324 -26.416 25.2441 -27.832 27.1973 -30.4199 L 50.1465 -60.0586 C 53.7109 -64.6484 56.7871 -65.625 61.5723 -65.625 L 72.7051 -65.625 L 72.7051 -73.2422 L 62.3047 -73.2422 C 51.8066 -73.2422 48.8281 -71.3867 41.6992 -62.3047 L 19.2871 -33.5938 C 16.7969 -30.3711 16.0645 -27.9297 16.0645 -22.8027 L 16.0645 11.7676 C 16.0645 24.2676 22.4609 30.6152 35.0586 30.6152 Z"/>
  </g>
  <g id="Light-L" transform="matrix(1 0 0 1 1063.56 1556)">
   <path d="M 89.6484 -26.9531 C 90.4785 -26.9531 91.2109 -27.2461 91.9922 -28.0273 L 114.551 -50.2441 C 115.186 -50.8789 115.527 -51.5625 115.527 -52.4414 C 115.527 -54.1016 114.209 -55.3711 112.549 -55.3711 C 111.768 -55.3711 110.84 -54.9805 110.254 -54.3457 L 98.9746 -42.7734 L 92.6758 -36.3281 L 92.9199 -45.3125 L 92.9199 -108.252 C 92.9199 -110.01 91.4062 -111.475 89.6484 -111.475 C 87.8418 -111.475 86.377 -110.01 86.377 -108.252 L 86.377 -45.3125 L 86.5723 -36.2793 L 80.2246 -42.7734 L 68.9453 -54.3457 C 68.3594 -54.9805 67.4316 -55.3711 66.6504 -55.3711 C 64.9414 -55.3711 63.6719 -54.1016 63.6719 -52.4414 C 63.6719 -51.5625 64.0137 -50.8789 64.6484 -50.2441 L 87.2559 -28.0273 C 88.0371 -27.2461 88.8184 -26.9531 89.6484 -26.9531 Z M 34.0332 29.7852 L 145.117 29.7852 C 157.031 29.7852 163.086 23.6328 163.086 11.9141 L 163.086 -22.3633 C 163.086 -26.7578 162.451 -28.7598 160.303 -31.543 L 136.084 -62.793 C 129.932 -70.6543 126.855 -72.4121 117.334 -72.4121 L 108.008 -72.4121 L 108.008 -66.5039 L 118.066 -66.5039 C 123.096 -66.5039 126.221 -65.2832 129.541 -61.084 L 154.346 -29.0527 C 156.006 -26.8555 155.469 -25.7812 153.076 -25.7812 L 110.059 -25.7812 C 107.52 -25.7812 106.299 -23.9746 106.299 -21.7773 L 106.299 -21.4355 C 106.299 -12.3047 99.3652 -4.3457 89.5996 -4.3457 C 79.834 -4.3457 72.9004 -12.3047 72.9004 -21.4355 L 72.9004 -21.7773 C 72.9004 -23.9746 71.6309 -25.7812 69.0918 -25.7812 L 26.123 -25.7812 C 23.6816 -25.7812 23.291 -26.9531 24.8535 -29.0527 L 49.6094 -60.9863 C 52.9785 -65.2832 56.1035 -66.5039 61.1328 -66.5039 L 71.2402 -66.5039 L 71.2402 -72.4121 L 61.8652 -72.4121 C 52.2949 -72.4121 49.2676 -70.6543 43.0664 -62.6953 L 18.8477 -31.543 C 16.6992 -28.7598 16.0645 -26.7578 16.0645 -22.3633 L 16.0645 11.9141 C 16.0645 23.7305 22.168 29.7852 34.0332 29.7852 Z"/>
  </g>
  <g id="Thin-L" transform="matrix(1 0 0 1 767.433 1556)">
   <path d="M 89.0625 -29.248 C 89.5508 -29.248 90.0391 -29.4434 90.4785 -29.8828 L 114.014 -53.418 C 114.404 -53.8086 114.6 -54.1992 114.6 -54.6875 C 114.6 -55.6641 113.721 -56.4941 112.842 -56.4941 C 112.354 -56.4941 111.768 -56.25 111.377 -55.8594 L 98.7793 -43.2129 L 90.918 -35.2539 L 91.0156 -43.9453 L 91.0156 -107.275 C 91.0156 -108.35 90.1367 -109.229 89.0625 -109.229 C 87.9883 -109.229 87.1094 -108.35 87.1094 -107.275 L 87.1094 -43.9453 L 87.207 -35.1562 L 79.2969 -43.2129 L 66.6992 -55.8594 C 66.3086 -56.25 65.7227 -56.4941 65.2344 -56.4941 C 64.2578 -56.4941 63.4766 -55.6641 63.4766 -54.6875 C 63.4766 -54.1992 63.6719 -53.8086 64.0625 -53.418 L 87.6953 -29.8828 C 88.0859 -29.4434 88.5742 -29.248 89.0625 -29.248 Z M 32.666 28.7109 L 145.312 28.7109 C 156.201 28.7109 161.914 22.8516 161.914 12.1094 L 161.914 -21.7773 C 161.914 -25.1465 161.426 -26.6602 159.766 -28.8086 L 133.105 -63.2812 C 128.174 -69.6777 125.049 -71.2891 116.748 -71.2891 L 108.838 -71.2891 L 108.838 -67.627 L 117.48 -67.627 C 122.852 -67.627 126.025 -66.1133 129.15 -62.1582 L 156.299 -27.2461 C 157.324 -25.8301 157.031 -24.9023 155.518 -24.9023 L 109.326 -24.9023 C 107.52 -24.9023 106.592 -23.7305 106.592 -22.0215 L 106.592 -21.582 C 106.592 -11.377 98.9746 -3.61328 89.0137 -3.61328 C 79.0039 -3.61328 71.3867 -11.377 71.3867 -21.582 L 71.3867 -22.0215 C 71.3867 -23.7305 70.5078 -24.9023 68.7012 -24.9023 L 22.5098 -24.9023 C 20.9473 -24.9023 20.7031 -25.8301 21.7285 -27.2461 L 48.8281 -62.1582 C 51.9531 -66.1133 55.1758 -67.627 60.5469 -67.627 L 69.3359 -67.627 L 69.3359 -71.2891 L 61.2793 -71.2891 C 52.9785 -71.2891 49.8535 -69.6777 44.873 -63.2812 L 18.2129 -28.8086 C 16.6016 -26.6602 16.0645 -25.1465 16.0645 -21.7773 L 16.0645 12.1094 C 16.0645 22.998 21.7773 28.7109 32.666 28.7109 Z"/>
  </g>
  <g id="Ultralight-L" transform="matrix(1 0 0 1 471.015 1556)">
   <path d="M 88.7695 -30.4688 C 89.1113 -30.4688 89.4531 -30.6152 89.6484 -30.8105 L 113.721 -55.0293 C 113.965 -55.2734 114.111 -55.5664 114.111 -55.8594 C 114.111 -56.4941 113.477 -57.1289 112.939 -57.1289 C 112.646 -57.1289 112.207 -56.8848 111.963 -56.6406 L 98.6816 -43.4082 L 90.0391 -34.668 L 90.0879 -43.2129 L 90.0879 -106.738 C 90.0879 -107.471 89.502 -108.057 88.7695 -108.057 C 88.0859 -108.057 87.5 -107.471 87.5 -106.738 L 87.5 -43.2129 L 87.5488 -34.6191 L 78.8086 -43.4082 L 65.5273 -56.6406 C 65.2344 -56.8848 64.8438 -57.1289 64.5508 -57.1289 C 63.916 -57.1289 63.3789 -56.4941 63.3789 -55.8594 C 63.3789 -55.5664 63.5254 -55.2734 63.7695 -55.0293 L 87.8906 -30.8105 C 88.1348 -30.6152 88.4766 -30.4688 88.7695 -30.4688 Z M 31.9824 28.1738 L 145.41 28.1738 C 155.811 28.1738 161.328 22.4609 161.328 12.207 L 161.328 -21.4355 C 161.328 -24.3652 160.889 -25.5859 159.473 -27.4414 L 131.641 -63.5254 C 127.246 -69.1895 124.121 -70.7031 116.455 -70.7031 L 109.229 -70.7031 L 109.229 -68.2129 L 117.188 -68.2129 C 122.705 -68.2129 125.977 -66.5039 128.955 -62.7441 L 157.275 -26.3184 C 158.008 -25.293 157.812 -24.4141 156.738 -24.4141 L 108.936 -24.4141 C 107.52 -24.4141 106.787 -23.6328 106.787 -22.1191 L 106.787 -21.6309 C 106.787 -10.9375 98.8281 -3.22266 88.7207 -3.22266 C 78.6133 -3.22266 70.6055 -10.9375 70.6055 -21.6309 L 70.6055 -22.1191 C 70.6055 -23.6328 69.9219 -24.4141 68.457 -24.4141 L 20.6543 -24.4141 C 19.5801 -24.4141 19.3848 -25.2441 20.1172 -26.3184 L 48.4375 -62.7441 C 51.4648 -66.5039 54.6875 -68.2129 60.2539 -68.2129 L 68.3594 -68.2129 L 68.3594 -70.7031 L 60.9375 -70.7031 C 53.3203 -70.7031 50.1465 -69.1895 45.8008 -63.5742 L 17.9199 -27.4414 C 16.5039 -25.5859 16.0645 -24.3652 16.0645 -21.4355 L 16.0645 12.207 C 16.0645 22.6074 21.582 28.1738 31.9824 28.1738 Z"/>
  </g>
  <g id="Black-M" transform="matrix(1 0 0 1 2861.84 1126)">
   <path d="M 71.582 -32.5684 C 73.6816 -32.5684 75.9277 -33.3496 77.9785 -35.3516 L 93.8965 -50.5371 C 95.1172 -51.8066 95.8496 -53.125 95.8496 -55.0293 C 95.8496 -58.7402 92.5781 -61.2305 89.3555 -61.2305 C 87.4023 -61.2305 85.6934 -60.4004 84.4727 -59.082 L 80.3223 -54.7363 L 78.6133 -50.4395 L 79.2969 -57.4219 L 79.2969 -89.7461 C 79.2969 -93.8477 75.9766 -97.4609 71.582 -97.4609 C 67.1387 -97.4609 63.8184 -93.8477 63.8184 -89.7461 L 63.8184 -57.4219 L 64.502 -50.4395 L 62.793 -54.7363 L 58.6914 -59.082 C 57.4219 -60.4004 55.7129 -61.2305 53.7598 -61.2305 C 50.5859 -61.2305 47.3145 -58.7402 47.3145 -55.0293 C 47.3145 -53.125 47.998 -51.8066 49.2188 -50.5371 L 65.1367 -35.3516 C 67.1875 -33.3496 69.4336 -32.5684 71.582 -32.5684 Z M 31.9824 18.1152 L 111.133 18.1152 C 123.389 18.1152 130.664 10.8398 130.664 -1.41602 L 130.664 -25.1465 C 130.664 -32.4219 130.127 -35.791 127.539 -40.918 L 114.209 -67.5293 C 108.74 -78.418 102.93 -80.3711 92.6758 -80.3711 L 88.7207 -80.3711 L 88.7207 -67.1387 L 92.7246 -67.1387 C 95.459 -67.1387 97.6562 -65.7715 98.6328 -63.4766 L 112.061 -34.4238 C 112.402 -33.5938 112.109 -32.8613 110.645 -32.8613 L 85.8398 -32.8613 C 82.4219 -32.8613 81.25 -31.3965 81.25 -29.541 L 81.25 -29.3457 C 81.25 -24.8535 77.8809 -19.6777 71.582 -19.6777 C 65.2344 -19.6777 61.8652 -24.8535 61.8652 -29.3457 L 61.8652 -29.541 C 61.8652 -31.3965 60.6934 -32.8613 57.2754 -32.8613 L 32.4707 -32.8613 C 31.0547 -32.8613 30.7129 -33.5938 31.0547 -34.4238 L 44.4824 -63.4766 C 45.5078 -65.7715 47.6562 -67.1387 50.3906 -67.1387 L 54.4434 -67.1387 L 54.4434 -80.3711 L 50.4395 -80.3711 C 40.1855 -80.3711 34.375 -78.418 28.9062 -67.5293 L 15.5762 -40.918 C 12.9883 -35.791 12.4512 -32.4219 12.4512 -25.1465 L 12.4512 -1.41602 C 12.4512 10.8398 19.7266 18.1152 31.9824 18.1152 Z"/>
  </g>
  <g id="Heavy-M" transform="matrix(1 0 0 1 2565.5 1126)">
   <path d="M 71.1914 -31.1035 C 73.0957 -31.1035 74.9512 -31.7871 76.8066 -33.5449 L 92.8223 -48.9258 C 93.9453 -50.0488 94.5801 -51.2695 94.5801 -52.9297 C 94.5801 -56.25 91.6992 -58.4961 88.7695 -58.4961 C 87.0605 -58.4961 85.5469 -57.7637 84.4238 -56.5918 L 79.541 -51.416 L 77.4414 -47.3145 L 78.0273 -54.3457 L 78.0273 -90.4785 C 78.0273 -94.0918 75.0488 -97.2656 71.1914 -97.2656 C 67.334 -97.2656 64.3555 -94.0918 64.3555 -90.4785 L 64.3555 -54.3457 L 64.9902 -47.3145 L 62.8906 -51.416 L 58.0078 -56.5918 C 56.8848 -57.7637 55.3223 -58.4961 53.6133 -58.4961 C 50.6836 -58.4961 47.8516 -56.25 47.8516 -52.9297 C 47.8516 -51.2695 48.4375 -50.0488 49.6094 -48.9258 L 65.625 -33.5449 C 67.4316 -31.7871 69.3359 -31.1035 71.1914 -31.1035 Z M 31.0059 17.6758 L 111.426 17.6758 C 123.193 17.6758 129.932 10.9375 129.932 -0.830078 L 129.932 -25.293 C 129.932 -31.9336 129.395 -35.0098 126.904 -39.5508 L 112.842 -64.7949 C 107.275 -74.9512 102.295 -76.7578 92.4316 -76.7578 L 87.3047 -76.7578 L 87.3047 -65.0879 L 92.5781 -65.0879 C 95.5078 -65.0879 97.7051 -63.8672 99.1699 -61.2793 L 113.379 -33.8867 C 114.062 -32.7148 113.672 -31.8848 111.963 -31.8848 L 85.8887 -31.8848 C 82.6172 -31.8848 81.4453 -30.2734 81.4453 -28.3691 L 81.4453 -28.1738 C 81.4453 -23.3398 77.7832 -17.8711 71.1914 -17.8711 C 64.6484 -17.8711 60.9863 -23.3398 60.9863 -28.1738 L 60.9863 -28.3691 C 60.9863 -30.2734 59.7656 -31.8848 56.4941 -31.8848 L 30.4688 -31.8848 C 28.7109 -31.8848 28.3691 -32.7148 29.0039 -33.8867 L 43.2129 -61.2305 C 44.6777 -63.8672 46.875 -65.0879 49.8047 -65.0879 L 55.0781 -65.0879 L 55.0781 -76.7578 L 50 -76.7578 C 40.1367 -76.7578 35.1562 -74.9512 29.541 -64.7949 L 15.4785 -39.5508 C 13.0371 -35.0098 12.4512 -31.9336 12.4512 -25.293 L 12.4512 -0.830078 C 12.4512 10.9375 19.2383 17.6758 31.0059 17.6758 Z"/>
  </g>
  <g id="Bold-M" transform="matrix(1 0 0 1 2269.18 1126)">
   <path d="M 70.8008 -29.4922 C 72.3633 -29.4922 73.877 -30.0293 75.4395 -31.543 L 91.6016 -47.1191 C 92.627 -48.0957 93.1641 -49.1699 93.1641 -50.6348 C 93.1641 -53.4668 90.7715 -55.4688 88.1348 -55.4688 C 86.7188 -55.4688 85.3516 -54.834 84.375 -53.8086 L 78.6133 -47.6562 L 76.123 -43.7988 L 76.6113 -50.9277 L 76.6113 -91.3086 C 76.6113 -94.3848 74.0723 -97.0215 70.8008 -97.0215 C 67.5293 -97.0215 64.9902 -94.3848 64.9902 -91.3086 L 64.9902 -50.9277 L 65.4785 -43.7988 L 62.9883 -47.6562 L 57.2266 -53.8086 C 56.25 -54.834 54.8828 -55.4688 53.418 -55.4688 C 50.7812 -55.4688 48.4375 -53.4668 48.4375 -50.6348 C 48.4375 -49.1699 48.9746 -48.0957 49.9512 -47.1191 L 66.1621 -31.543 C 67.7246 -30.0293 69.2383 -29.4922 70.8008 -29.4922 Z M 29.8828 17.1875 L 111.719 17.1875 C 122.949 17.1875 129.15 10.9863 129.15 -0.146484 L 129.15 -25.4883 C 129.15 -31.3477 128.564 -34.082 126.172 -38.0371 L 111.328 -61.8164 C 105.615 -71.0449 101.562 -72.7539 92.0898 -72.7539 L 85.791 -72.7539 L 85.791 -62.7441 L 92.4316 -62.7441 C 95.5566 -62.7441 97.8027 -61.7188 99.707 -58.7891 L 114.844 -33.3496 C 115.967 -31.6895 115.479 -30.8105 113.428 -30.8105 L 85.9863 -30.8105 C 82.9102 -30.8105 81.6406 -29.0527 81.6406 -27.0508 L 81.6406 -26.8555 C 81.6406 -21.6309 77.6367 -15.8691 70.8008 -15.8691 C 63.9648 -15.8691 59.9609 -21.6309 59.9609 -26.8555 L 59.9609 -27.0508 C 59.9609 -29.0527 58.6914 -30.8105 55.6152 -30.8105 L 28.2227 -30.8105 C 26.0742 -30.8105 25.6836 -31.7871 26.7578 -33.3496 L 41.8457 -58.7402 C 43.7988 -61.7188 46.0449 -62.7441 49.1699 -62.7441 L 55.8105 -62.7441 L 55.8105 -72.7539 L 49.4629 -72.7539 C 40.0391 -72.7539 35.9863 -71.0449 30.2246 -61.7188 L 15.3809 -38.0371 C 13.0371 -34.082 12.4512 -31.3477 12.4512 -25.4883 L 12.4512 -0.146484 C 12.4512 11.0352 18.6523 17.1875 29.8828 17.1875 Z"/>
  </g>
  <g id="Semibold-M" transform="matrix(1 0 0 1 1972.76 1126)">
   <path d="M 70.5078 -28.418 C 71.875 -28.418 73.1445 -28.8574 74.5117 -30.1758 L 90.8203 -45.8496 C 91.6992 -46.7773 92.1875 -47.7051 92.1875 -49.0234 C 92.1875 -51.5625 90.1367 -53.3691 87.6953 -53.3691 C 86.4746 -53.3691 85.2051 -52.832 84.375 -51.8555 L 77.9785 -45.1172 L 75.1953 -41.4062 L 75.6348 -48.584 L 75.6348 -91.8945 C 75.6348 -94.5801 73.3398 -96.875 70.5078 -96.875 C 67.6758 -96.875 65.4297 -94.5801 65.4297 -91.8945 L 65.4297 -48.584 L 65.8203 -41.3574 L 63.0371 -45.1172 L 56.6895 -51.8555 C 55.8105 -52.832 54.541 -53.3691 53.2715 -53.3691 C 50.8789 -53.3691 48.8281 -51.5625 48.8281 -49.0234 C 48.8281 -47.7051 49.3164 -46.7773 50.2441 -45.8496 L 66.5527 -30.1758 C 67.8711 -28.8574 69.1406 -28.418 70.5078 -28.418 Z M 29.1016 16.8457 L 111.914 16.8457 C 122.803 16.8457 128.564 11.084 128.564 0.292969 L 128.564 -25.6348 C 128.564 -30.957 127.979 -33.4473 125.684 -36.9629 L 110.254 -59.7168 C 104.492 -68.3594 101.074 -70.0195 91.8945 -70.0195 L 84.7168 -70.0195 L 84.7168 -61.1328 L 92.2852 -61.1328 C 95.6055 -61.1328 97.9004 -60.2539 100.098 -57.0801 L 115.869 -32.959 C 117.236 -31.0059 116.748 -30.0781 114.404 -30.0781 L 85.9863 -30.0781 C 83.0566 -30.0781 81.7871 -28.2227 81.7871 -26.123 L 81.7871 -25.9277 C 81.7871 -20.459 77.5391 -14.4531 70.5078 -14.4531 C 63.4766 -14.4531 59.2285 -20.459 59.2285 -25.9277 L 59.2285 -26.123 C 59.2285 -28.2227 57.959 -30.0781 55.0293 -30.0781 L 26.6602 -30.0781 C 24.2676 -30.0781 23.877 -31.1035 25.1953 -32.959 L 40.8691 -56.9824 C 43.1641 -60.2539 45.459 -61.1328 48.7305 -61.1328 L 56.2988 -61.1328 L 56.2988 -70.0195 L 49.1211 -70.0195 C 39.9902 -70.0195 36.5723 -68.3594 30.7129 -59.6191 L 15.332 -36.9629 C 13.0371 -33.4473 12.4512 -30.957 12.4512 -25.6348 L 12.4512 0.292969 C 12.4512 11.084 18.2617 16.8457 29.1016 16.8457 Z"/>
  </g>
  <g id="Medium-M" transform="matrix(1 0 0 1 1676.24 1126)">
   <path d="M 70.3125 -27.5391 C 71.5332 -27.5391 72.6074 -27.9297 73.7793 -29.1016 L 90.1855 -44.9219 C 91.0156 -45.752 91.4551 -46.6309 91.4551 -47.8027 C 91.4551 -50.0977 89.5996 -51.7578 87.4023 -51.7578 C 86.2793 -51.7578 85.1074 -51.2695 84.3262 -50.3906 L 77.5391 -43.1641 L 74.5117 -39.5508 L 74.9023 -46.7773 L 74.9023 -92.2852 C 74.9023 -94.7266 72.8516 -96.7773 70.3125 -96.7773 C 67.7734 -96.7773 65.7227 -94.7266 65.7227 -92.2852 L 65.7227 -46.7773 L 66.1133 -39.5508 L 63.0859 -43.1641 L 56.2988 -50.3906 C 55.4688 -51.2695 54.2969 -51.7578 53.1738 -51.7578 C 50.9277 -51.7578 49.1211 -50.0977 49.1211 -47.8027 C 49.1211 -46.6309 49.6094 -45.752 50.4395 -44.9219 L 66.8457 -29.1016 C 68.0176 -27.9297 69.0918 -27.5391 70.3125 -27.5391 Z M 28.5156 16.6016 L 112.061 16.6016 C 122.656 16.6016 128.174 11.1328 128.174 0.683594 L 128.174 -25.7324 C 128.174 -30.6641 127.539 -32.959 125.293 -36.1816 L 109.473 -58.1543 C 103.662 -66.3086 100.684 -67.9199 91.748 -67.9199 L 83.9355 -67.9199 L 83.9355 -59.9121 L 92.1875 -59.9121 C 95.6055 -59.9121 97.9492 -59.1797 100.391 -55.8105 L 116.602 -32.666 C 118.213 -30.4688 117.676 -29.541 115.186 -29.541 L 86.0352 -29.541 C 83.2031 -29.541 81.9336 -27.5391 81.9336 -25.4395 L 81.9336 -25.2441 C 81.9336 -19.5312 77.4902 -13.4277 70.3125 -13.4277 C 63.1348 -13.4277 58.6914 -19.5312 58.6914 -25.2441 L 58.6914 -25.4395 C 58.6914 -27.5391 57.4219 -29.541 54.5898 -29.541 L 25.4395 -29.541 C 22.9004 -29.541 22.5098 -30.6152 23.9746 -32.666 L 40.1367 -55.7129 C 42.6758 -59.1309 44.9707 -59.9121 48.3887 -59.9121 L 56.6895 -59.9121 L 56.6895 -67.9199 L 48.877 -67.9199 C 39.9414 -67.9199 37.0117 -66.3086 31.0547 -58.0566 L 15.2832 -36.1816 C 13.0371 -32.959 12.4512 -30.6641 12.4512 -25.7324 L 12.4512 0.683594 C 12.4512 11.1328 17.9688 16.6016 28.5156 16.6016 Z"/>
  </g>
  <g id="Regular-M" transform="matrix(1 0 0 1 1379.82 1126)">
   <path d="M 70.0195 -26.4648 C 71.0449 -26.4648 71.875 -26.7578 72.8516 -27.7344 L 89.3555 -43.6523 C 90.0879 -44.4336 90.5273 -45.2148 90.5273 -46.2402 C 90.5273 -48.2422 88.9648 -49.6582 86.9629 -49.6582 C 85.9863 -49.6582 85.0098 -49.2676 84.3262 -48.4863 L 76.9043 -40.625 L 73.6328 -37.1582 L 73.9258 -44.4824 L 73.9258 -92.8711 C 73.9258 -94.9219 72.1191 -96.6309 70.0195 -96.6309 C 67.9199 -96.6309 66.1621 -94.9219 66.1621 -92.8711 L 66.1621 -44.4824 L 66.4551 -37.1582 L 63.1348 -40.625 L 55.7617 -48.4863 C 55.0781 -49.2676 54.0039 -49.6582 53.0762 -49.6582 C 51.0254 -49.6582 49.5605 -48.2422 49.5605 -46.2402 C 49.5605 -45.2148 49.9512 -44.4336 50.6836 -43.6523 L 67.2363 -27.7344 C 68.2129 -26.7578 69.043 -26.4648 70.0195 -26.4648 Z M 27.7832 16.2598 L 112.256 16.2598 C 122.51 16.2598 127.588 11.1816 127.588 1.12305 L 127.588 -25.8301 C 127.588 -30.2734 127.002 -32.373 124.805 -35.1074 L 108.447 -56.1035 C 102.539 -63.6719 100.195 -65.1855 91.5039 -65.1855 L 82.9102 -65.1855 L 82.9102 -58.3008 L 92.0898 -58.3008 C 95.6543 -58.3008 97.998 -57.7148 100.732 -54.1504 L 117.627 -32.2754 C 119.531 -29.7852 118.896 -28.8086 116.211 -28.8086 L 86.084 -28.8086 C 83.3496 -28.8086 82.0801 -26.709 82.0801 -24.5605 L 82.0801 -24.3652 C 82.0801 -18.3594 77.3926 -12.0605 70.0195 -12.0605 C 62.6953 -12.0605 58.0078 -18.3594 58.0078 -24.3652 L 58.0078 -24.5605 C 58.0078 -26.709 56.6895 -28.8086 53.9551 -28.8086 L 23.9258 -28.8086 C 21.0938 -28.8086 20.6543 -29.9805 22.4609 -32.2754 L 39.209 -54.0039 C 42.041 -57.666 44.3848 -58.3008 47.9492 -58.3008 L 57.1777 -58.3008 L 57.1777 -65.1855 L 48.5352 -65.1855 C 39.8438 -65.1855 37.5977 -63.6719 31.543 -55.957 L 15.2344 -35.1074 C 13.0859 -32.373 12.4512 -30.2734 12.4512 -25.8301 L 12.4512 1.12305 C 12.4512 11.1816 17.5781 16.2598 27.7832 16.2598 Z"/>
  </g>
  <g id="Light-M" transform="matrix(1 0 0 1 1083.5 1126)">
   <path d="M 69.6777 -28.0273 C 70.4102 -28.0273 71.0938 -28.2715 71.8262 -29.0039 L 88.9648 -45.8008 C 89.5508 -46.3867 89.8926 -46.9727 89.8926 -47.8027 C 89.8926 -49.3164 88.6719 -50.4395 87.1582 -50.4395 C 86.4258 -50.4395 85.5957 -50.1465 85.0586 -49.5117 L 76.7578 -40.918 L 72.4121 -36.4258 L 72.6562 -43.5059 L 72.6562 -92.1875 C 72.6562 -93.75 71.2891 -95.1172 69.6777 -95.1172 C 68.0176 -95.1172 66.6504 -93.75 66.6504 -92.1875 L 66.6504 -43.5059 L 66.8945 -36.377 L 62.5 -40.918 L 54.1992 -49.5117 C 53.6621 -50.1465 52.832 -50.4395 52.0996 -50.4395 C 50.5371 -50.4395 49.4141 -49.3164 49.4141 -47.8027 C 49.4141 -46.9727 49.7559 -46.3867 50.293 -45.8008 L 67.4805 -29.0039 C 68.2129 -28.2715 68.8965 -28.0273 69.6777 -28.0273 Z M 26.8555 15.5273 L 112.402 15.5273 C 121.973 15.5273 126.807 10.6445 126.807 1.26953 L 126.807 -25.4395 C 126.807 -29.1992 126.27 -30.9082 124.463 -33.3008 L 106.445 -56.4453 C 101.318 -62.9883 98.9258 -64.4043 91.1133 -64.4043 L 83.4473 -64.4043 L 83.4473 -59.082 L 91.6992 -59.082 C 95.459 -59.082 97.8516 -58.252 100.488 -54.8828 L 118.945 -31.0547 C 120.41 -29.0527 119.971 -28.1738 117.822 -28.1738 L 85.5469 -28.1738 C 83.3496 -28.1738 82.2754 -26.5625 82.2754 -24.707 L 82.2754 -24.4629 C 82.2754 -17.7734 77.1484 -11.5234 69.6289 -11.5234 C 62.1094 -11.5234 56.9824 -17.7734 56.9824 -24.4629 L 56.9824 -24.707 C 56.9824 -26.5625 55.9082 -28.1738 53.7109 -28.1738 L 21.4355 -28.1738 C 19.2871 -28.1738 18.9453 -29.1992 20.3125 -31.0547 L 38.6719 -54.7852 C 41.4062 -58.2031 43.7988 -59.082 47.5586 -59.082 L 55.8594 -59.082 L 55.8594 -64.4043 L 48.1445 -64.4043 C 40.332 -64.4043 37.9883 -62.9883 32.7637 -56.3477 L 14.7949 -33.3008 C 12.9883 -30.9082 12.4512 -29.1992 12.4512 -25.4395 L 12.4512 1.26953 C 12.4512 10.6934 17.334 15.5273 26.8555 15.5273 Z"/>
  </g>
  <g id="Thin-M" transform="matrix(1 0 0 1 787.33 1126)">
   <path d="M 69.1406 -30.127 C 69.6289 -30.127 70.0195 -30.2734 70.459 -30.6641 L 88.4766 -48.6328 C 88.8184 -48.9746 89.0137 -49.3652 89.0137 -49.8047 C 89.0137 -50.7324 88.2324 -51.4648 87.3535 -51.4648 C 86.9141 -51.4648 86.4258 -51.2695 86.084 -50.8789 L 76.6113 -41.3086 L 70.8496 -35.4492 L 70.9473 -42.2852 L 70.9473 -91.2598 C 70.9473 -92.2363 70.1172 -93.0664 69.1406 -93.0664 C 68.1641 -93.0664 67.334 -92.2363 67.334 -91.2598 L 67.334 -42.2852 L 67.4805 -35.4004 L 61.6699 -41.3086 L 52.1973 -50.8789 C 51.8555 -51.2695 51.3184 -51.4648 50.8789 -51.4648 C 49.9512 -51.4648 49.2188 -50.7324 49.2188 -49.8047 C 49.2188 -49.3652 49.4141 -48.9746 49.8047 -48.6328 L 67.8711 -30.6641 C 68.2617 -30.2734 68.7012 -30.127 69.1406 -30.127 Z M 25.6348 14.5508 L 112.598 14.5508 C 121.24 14.5508 125.732 9.96094 125.732 1.41602 L 125.732 -24.9023 C 125.732 -27.7832 125.342 -29.0527 123.926 -30.8594 L 103.809 -56.8848 C 99.707 -62.1582 97.3145 -63.4277 90.625 -63.4277 L 84.1797 -63.4277 L 84.1797 -60.1074 L 91.1621 -60.1074 C 95.2637 -60.1074 97.7051 -58.9844 100.195 -55.8594 L 120.703 -29.3945 C 121.631 -28.1738 121.338 -27.3926 120.02 -27.3926 L 84.8633 -27.3926 C 83.3008 -27.3926 82.5684 -26.3672 82.5684 -24.9512 L 82.5684 -24.6094 C 82.5684 -16.9434 76.8066 -10.8887 69.0918 -10.8887 C 61.4258 -10.8887 55.6641 -16.9434 55.6641 -24.6094 L 55.6641 -24.9512 C 55.6641 -26.3672 54.8828 -27.3926 53.3203 -27.3926 L 18.2129 -27.3926 C 16.8457 -27.3926 16.6016 -28.1738 17.5293 -29.3945 L 37.9883 -55.8105 C 40.4785 -58.9844 42.9688 -60.1074 47.0215 -60.1074 L 54.1504 -60.1074 L 54.1504 -63.4277 L 47.6074 -63.4277 C 40.918 -63.4277 38.5254 -62.1582 34.375 -56.8359 L 14.2578 -30.8594 C 12.8906 -29.0527 12.4512 -27.7832 12.4512 -24.9023 L 12.4512 1.41602 C 12.4512 10.0586 16.9922 14.5508 25.6348 14.5508 Z"/>
  </g>
  <g id="Ultralight-M" transform="matrix(1 0 0 1 490.888 1126)">
   <path d="M 68.8965 -31.1523 C 69.1895 -31.1523 69.4824 -31.2988 69.7266 -31.543 L 88.2324 -50.0977 C 88.4766 -50.3418 88.5742 -50.5859 88.5742 -50.8789 C 88.5742 -51.4648 88.0371 -52.002 87.5 -52.002 C 87.207 -52.002 86.8164 -51.8066 86.5723 -51.5625 L 76.5137 -41.5039 L 70.0195 -34.9609 L 70.1172 -41.6504 L 70.1172 -90.8203 C 70.1172 -91.4551 69.5312 -91.9922 68.8965 -91.9922 C 68.2129 -91.9922 67.6758 -91.4551 67.6758 -90.8203 L 67.6758 -41.6504 L 67.7734 -34.9121 L 61.2305 -41.5039 L 51.123 -51.5625 C 50.8789 -51.8066 50.5371 -52.002 50.2441 -52.002 C 49.6094 -52.002 49.1699 -51.4648 49.1699 -50.8789 C 49.1699 -50.5859 49.2676 -50.3418 49.5117 -50.0977 L 68.0664 -31.543 C 68.3105 -31.2988 68.6035 -31.1523 68.8965 -31.1523 Z M 25 14.0625 L 112.695 14.0625 C 120.85 14.0625 125.195 9.57031 125.195 1.51367 L 125.195 -24.6582 C 125.195 -27.0508 124.854 -28.0762 123.682 -29.5898 L 102.441 -57.0801 C 98.877 -61.7188 96.4355 -62.8906 90.332 -62.8906 L 84.5215 -62.8906 L 84.5215 -60.5957 L 90.918 -60.5957 C 95.166 -60.5957 97.6562 -59.3262 100 -56.3477 L 121.582 -28.5645 C 122.266 -27.6855 122.07 -27.002 121.094 -27.002 L 84.5215 -27.002 C 83.3008 -27.002 82.7148 -26.2695 82.7148 -25.0488 L 82.7148 -24.6582 C 82.7148 -16.5527 76.6113 -10.5469 68.8477 -10.5469 C 61.0352 -10.5469 54.9805 -16.5527 54.9805 -24.6582 L 54.9805 -25.0488 C 54.9805 -26.2695 54.3457 -27.002 53.125 -27.002 L 16.5527 -27.002 C 15.5762 -27.002 15.4297 -27.6855 16.0645 -28.5645 L 37.6465 -56.3477 C 40.0391 -59.3262 42.5293 -60.5957 46.7773 -60.5957 L 53.2715 -60.5957 L 53.2715 -62.8906 L 47.3145 -62.8906 C 41.2109 -62.8906 38.7695 -61.7188 35.2051 -57.0801 L 13.9648 -29.5898 C 12.8418 -28.0762 12.4512 -27.0508 12.4512 -24.6582 L 12.4512 1.51367 C 12.4512 9.7168 16.7969 14.0625 25 14.0625 Z"/>
  </g>
  <g id="Black-S" transform="matrix(1 0 0 1 2877.35 696)">
   <path d="M 56.0547 -33.0078 C 57.7148 -33.0078 59.4238 -33.5938 61.0352 -35.1562 L 73.4863 -47.0703 C 74.4629 -48.0469 75 -49.0723 75 -50.5371 C 75 -53.418 72.4609 -55.3711 69.9707 -55.3711 C 68.457 -55.3711 67.1387 -54.7363 66.1621 -53.7109 L 62.8906 -50.2441 L 61.5234 -46.9238 L 62.0605 -52.3926 L 62.0605 -78.0273 C 62.0605 -81.2012 59.4727 -83.9844 56.0547 -83.9844 C 52.6367 -83.9844 50.0488 -81.2012 50.0488 -78.0273 L 50.0488 -52.3926 L 50.5859 -46.9238 L 49.2188 -50.2441 L 45.9473 -53.7109 C 44.9707 -54.7363 43.6523 -55.3711 42.1387 -55.3711 C 39.6484 -55.3711 37.1094 -53.418 37.1094 -50.5371 C 37.1094 -49.0723 37.6465 -48.0469 38.623 -47.0703 L 51.0742 -35.1562 C 52.6855 -33.5938 54.3945 -33.0078 56.0547 -33.0078 Z M 25 6.54297 L 87.1094 6.54297 C 96.6797 6.54297 102.344 0.878906 102.344 -8.69141 L 102.344 -27.3438 C 102.344 -33.0078 101.904 -35.6445 99.9023 -39.5996 L 89.4043 -60.3027 C 85.1074 -68.7988 80.6152 -70.3125 72.6074 -70.3125 L 69.3848 -70.3125 L 69.3848 -60.0586 L 72.6562 -60.0586 C 74.8047 -60.0586 76.5137 -58.9844 77.3438 -57.1777 L 87.8906 -34.5703 C 88.1836 -33.8867 87.9395 -33.3008 86.7676 -33.3008 L 67.2852 -33.3008 C 64.5996 -33.3008 63.6719 -32.1289 63.6719 -30.6641 L 63.6719 -30.5176 C 63.6719 -27.002 61.0352 -22.9004 56.0547 -22.9004 C 51.0742 -22.9004 48.4375 -27.002 48.4375 -30.5176 L 48.4375 -30.6641 C 48.4375 -32.1289 47.5098 -33.3008 44.8242 -33.3008 L 25.3418 -33.3008 C 24.1699 -33.3008 23.9258 -33.8867 24.2188 -34.5703 L 34.7656 -57.1777 C 35.5957 -58.9844 37.3047 -60.0586 39.4531 -60.0586 L 42.7246 -60.0586 L 42.7246 -70.3125 L 39.502 -70.3125 C 31.4941 -70.3125 27.002 -68.7988 22.7051 -60.3027 L 12.207 -39.5996 C 10.2051 -35.6445 9.76562 -33.0078 9.76562 -27.3438 L 9.76562 -8.69141 C 9.76562 0.878906 15.4297 6.54297 25 6.54297 Z"/>
  </g>
  <g id="Heavy-S" transform="matrix(1 0 0 1 2580.88 696)">
   <path d="M 55.8105 -31.7383 C 57.3242 -31.7383 58.7891 -32.2266 60.2051 -33.6426 L 72.7051 -45.6055 C 73.6328 -46.4844 74.1211 -47.4609 74.1211 -48.7793 C 74.1211 -51.416 71.8262 -53.2227 69.5312 -53.2227 C 68.1641 -53.2227 66.9434 -52.6367 66.0645 -51.709 L 62.3047 -47.6562 L 60.7422 -44.5801 L 61.2305 -50.1465 L 61.2305 -78.6621 C 61.2305 -81.4941 58.8867 -83.9844 55.8105 -83.9844 C 52.7832 -83.9844 50.3906 -81.4941 50.3906 -78.6621 L 50.3906 -50.1465 L 50.8789 -44.5801 L 49.3652 -47.6562 L 45.6055 -51.709 C 44.6777 -52.6367 43.457 -53.2227 42.1387 -53.2227 C 39.7949 -53.2227 37.5488 -51.416 37.5488 -48.7793 C 37.5488 -47.4609 38.0371 -46.4844 38.916 -45.6055 L 51.416 -33.6426 C 52.8809 -32.2266 54.3457 -31.7383 55.8105 -31.7383 Z M 24.3652 6.29883 L 87.3047 6.29883 C 96.582 6.29883 101.855 0.976562 101.855 -8.25195 L 101.855 -27.4902 C 101.855 -32.7148 101.416 -35.1562 99.4629 -38.7695 L 88.5742 -58.2031 C 84.1309 -66.2109 80.2734 -67.6758 72.4609 -67.6758 L 68.2617 -67.6758 L 68.2617 -58.3984 L 72.6074 -58.3984 C 74.8535 -58.3984 76.6113 -57.4707 77.7344 -55.4199 L 88.7695 -34.3262 C 89.3555 -33.252 89.0625 -32.6172 87.5977 -32.6172 L 67.3828 -32.6172 C 64.7949 -32.6172 63.8184 -31.2988 63.8184 -29.7363 L 63.8184 -29.5898 C 63.8184 -25.8789 60.9863 -21.582 55.8105 -21.582 C 50.6836 -21.582 47.8516 -25.8789 47.8516 -29.5898 L 47.8516 -29.7363 C 47.8516 -31.2988 46.875 -32.6172 44.2383 -32.6172 L 24.0723 -32.6172 C 22.5586 -32.6172 22.3145 -33.3008 22.9004 -34.3262 L 33.8867 -55.3711 C 35.0586 -57.4707 36.7676 -58.3984 39.0625 -58.3984 L 43.3594 -58.3984 L 43.3594 -67.6758 L 39.209 -67.6758 C 31.3965 -67.6758 27.5391 -66.2109 23.0469 -58.1543 L 12.207 -38.7695 C 10.2051 -35.1562 9.76562 -32.7148 9.76562 -27.4902 L 9.76562 -8.25195 C 9.76562 0.976562 15.0879 6.29883 24.3652 6.29883 Z"/>
  </g>
  <g id="Bold-S" transform="matrix(1 0 0 1 2284.41 696)">
   <path d="M 55.5664 -30.3223 C 56.8359 -30.3223 58.0566 -30.7129 59.3262 -31.9824 L 71.8262 -43.9453 C 72.6562 -44.7754 73.0957 -45.6055 73.0957 -46.8262 C 73.0957 -49.1699 71.1914 -50.7812 68.9941 -50.7812 C 67.8223 -50.7812 66.6992 -50.293 65.918 -49.4141 L 61.6211 -44.7754 L 59.9121 -41.9922 L 60.3027 -47.6562 L 60.3027 -79.3457 C 60.3027 -81.8848 58.2031 -84.0332 55.5664 -84.0332 C 52.9297 -84.0332 50.8301 -81.8848 50.8301 -79.3457 L 50.8301 -47.6562 L 51.2207 -41.9922 L 49.5117 -44.7754 L 45.2148 -49.4141 C 44.3848 -50.293 43.2617 -50.7812 42.0898 -50.7812 C 39.9414 -50.7812 37.9883 -49.1699 37.9883 -46.8262 C 37.9883 -45.6055 38.4766 -44.7754 39.2578 -43.9453 L 51.8066 -31.9824 C 53.0762 -30.7129 54.2969 -30.3223 55.5664 -30.3223 Z M 23.6328 6.00586 L 87.5 6.00586 C 96.4844 6.00586 101.367 1.12305 101.367 -7.76367 L 101.367 -27.6855 C 101.367 -32.4219 100.879 -34.668 98.9258 -37.8418 L 87.6465 -55.8594 C 83.0078 -63.2812 79.8828 -64.6973 72.2656 -64.6973 L 67.041 -64.6973 L 67.041 -56.4941 L 72.5098 -56.4941 C 74.9023 -56.4941 76.6602 -55.7617 78.2227 -53.418 L 89.6973 -34.0332 C 90.6738 -32.5684 90.2832 -31.8848 88.5254 -31.8848 L 67.4805 -31.8848 C 64.9414 -31.8848 63.916 -30.3711 63.916 -28.7109 L 63.916 -28.6133 C 63.916 -24.6582 60.8887 -20.1172 55.5664 -20.1172 C 50.2441 -20.1172 47.168 -24.6582 47.168 -28.6133 L 47.168 -28.7109 C 47.168 -30.3711 46.1426 -31.8848 43.6523 -31.8848 L 22.6562 -31.8848 C 20.8008 -31.8848 20.5078 -32.666 21.4355 -34.0332 L 32.8613 -53.3691 C 34.4238 -55.7617 36.2305 -56.4941 38.623 -56.4941 L 44.0918 -56.4941 L 44.0918 -64.6973 L 38.8672 -64.6973 C 31.25 -64.6973 28.125 -63.2812 23.3887 -55.8105 L 12.1582 -37.8418 C 10.2539 -34.668 9.76562 -32.4219 9.76562 -27.6855 L 9.76562 -7.76367 C 9.76562 1.12305 14.6973 6.00586 23.6328 6.00586 Z"/>
  </g>
  <g id="Semibold-S" transform="matrix(1 0 0 1 1987.9 696)">
   <path d="M 55.3711 -29.2969 C 56.4941 -29.2969 57.5684 -29.6875 58.6914 -30.8105 L 71.2402 -42.8223 C 72.0215 -43.5547 72.4121 -44.3848 72.4121 -45.459 C 72.4121 -47.6074 70.7031 -49.0723 68.6523 -49.0723 C 67.5781 -49.0723 66.5527 -48.6816 65.8203 -47.8516 L 61.1328 -42.7734 L 59.2773 -40.2344 L 59.668 -45.9473 L 59.668 -79.834 C 59.668 -82.1289 57.7637 -84.0332 55.3711 -84.0332 C 53.0273 -84.0332 51.123 -82.1289 51.123 -79.834 L 51.123 -45.9473 L 51.4648 -40.2344 L 49.6094 -42.7734 L 44.9219 -47.8516 C 44.1895 -48.6816 43.1152 -49.0723 42.0898 -49.0723 C 40.0391 -49.0723 38.3301 -47.6074 38.3301 -45.459 C 38.3301 -44.3848 38.7695 -43.5547 39.502 -42.8223 L 52.0508 -30.8105 C 53.1738 -29.6875 54.248 -29.2969 55.3711 -29.2969 Z M 23.0957 5.81055 L 87.6465 5.81055 C 96.3867 5.81055 100.977 1.2207 100.977 -7.42188 L 100.977 -27.832 C 100.977 -32.2266 100.488 -34.2773 98.584 -37.1582 L 87.0117 -54.248 C 82.2266 -61.3281 79.5898 -62.6465 72.1191 -62.6465 L 66.1621 -62.6465 L 66.1621 -55.2246 L 72.4609 -55.2246 C 74.9512 -55.2246 76.7578 -54.5898 78.5156 -52.0508 L 90.3809 -33.8379 C 91.6016 -32.1289 91.1621 -31.3965 89.1602 -31.3965 L 67.5781 -31.3965 C 65.0879 -31.3965 64.0137 -29.7363 64.0137 -28.0273 L 64.0137 -27.8809 C 64.0137 -23.8281 60.8398 -19.0918 55.3711 -19.0918 C 49.9023 -19.0918 46.7285 -23.8281 46.7285 -27.8809 L 46.7285 -28.0273 C 46.7285 -29.7363 45.6543 -31.3965 43.2129 -31.3965 L 21.6309 -31.3965 C 19.5801 -31.3965 19.2383 -32.2266 20.4102 -33.8379 L 32.1777 -51.9531 C 34.0332 -54.5898 35.791 -55.2246 38.3301 -55.2246 L 44.5801 -55.2246 L 44.5801 -62.6465 L 38.623 -62.6465 C 31.1523 -62.6465 28.5645 -61.3281 23.6816 -54.1504 L 12.1582 -37.1582 C 10.2539 -34.2773 9.76562 -32.2266 9.76562 -27.832 L 9.76562 -7.42188 C 9.76562 1.2207 14.4043 5.81055 23.0957 5.81055 Z"/>
  </g>
  <g id="Medium-S" transform="matrix(1 0 0 1 1691.31 696)">
   <path d="M 55.2246 -28.5645 C 56.2988 -28.5645 57.1777 -28.9062 58.2031 -29.9316 L 70.8008 -41.9434 C 71.5332 -42.6758 71.9238 -43.4082 71.9238 -44.4336 C 71.9238 -46.4355 70.3613 -47.8027 68.4082 -47.8027 C 67.4316 -47.8027 66.4551 -47.4609 65.7715 -46.6797 L 60.791 -41.2598 L 58.8379 -38.8672 L 59.1797 -44.6289 L 59.1797 -80.2246 C 59.1797 -82.2754 57.4219 -84.082 55.2246 -84.082 C 53.0762 -84.082 51.3184 -82.2754 51.3184 -80.2246 L 51.3184 -44.6289 L 51.6602 -38.8672 L 49.707 -41.2598 L 44.7266 -46.6797 C 44.043 -47.4609 43.0176 -47.8027 42.041 -47.8027 C 40.0879 -47.8027 38.5742 -46.4355 38.5742 -44.4336 C 38.5742 -43.4082 38.9648 -42.6758 39.6973 -41.9434 L 52.2949 -29.9316 C 53.2715 -28.9062 54.1992 -28.5645 55.2246 -28.5645 Z M 22.7051 5.66406 L 87.7441 5.66406 C 96.3379 5.66406 100.732 1.26953 100.732 -7.12891 L 100.732 -27.9297 C 100.732 -32.0801 100.195 -34.0332 98.3398 -36.6699 L 86.5723 -53.0273 C 81.6895 -59.7656 79.3945 -61.084 72.0215 -61.084 L 65.5273 -61.084 L 65.5273 -54.248 L 72.4121 -54.248 C 75 -54.248 76.7578 -53.7109 78.7598 -51.0254 L 90.8691 -33.6914 C 92.2852 -31.7383 91.7969 -31.0059 89.5996 -31.0059 L 67.627 -31.0059 C 65.1855 -31.0059 64.1113 -29.248 64.1113 -27.4902 L 64.1113 -27.3438 C 64.1113 -23.1445 60.791 -18.3105 55.2246 -18.3105 C 49.707 -18.3105 46.3867 -23.1445 46.3867 -27.3438 L 46.3867 -27.4902 C 46.3867 -29.248 45.3125 -31.0059 42.8711 -31.0059 L 20.8984 -31.0059 C 18.6523 -31.0059 18.3105 -31.8848 19.6289 -33.6914 L 31.6406 -50.9277 C 33.6914 -53.7109 35.498 -54.248 38.0859 -54.248 L 44.9707 -54.248 L 44.9707 -61.084 L 38.4277 -61.084 C 31.1035 -61.084 28.8574 -59.7656 23.877 -52.8809 L 12.1582 -36.6699 C 10.2539 -34.0332 9.76562 -32.0801 9.76562 -27.9297 L 9.76562 -7.12891 C 9.76562 1.31836 14.209 5.66406 22.7051 5.66406 Z"/>
  </g>
  <g id="Regular-S" transform="matrix(1 0 0 1 1394.79 696)">
   <path d="M 55.0781 -27.5879 C 55.957 -27.5879 56.6895 -27.8809 57.6172 -28.7598 L 70.2148 -40.8203 C 70.8496 -41.4551 71.2402 -42.1875 71.2402 -43.1152 C 71.2402 -44.873 69.873 -46.1426 68.0664 -46.1426 C 67.1875 -46.1426 66.3086 -45.8496 65.6738 -45.1172 L 60.3516 -39.3066 L 58.252 -37.1094 L 58.5449 -42.9199 L 58.5449 -80.7129 C 58.5449 -82.5195 56.9336 -84.082 55.0781 -84.082 C 53.1738 -84.082 51.6113 -82.5195 51.6113 -80.7129 L 51.6113 -42.9199 L 51.8555 -37.1094 L 49.8047 -39.3066 L 44.4336 -45.1172 C 43.8477 -45.8496 42.8711 -46.1426 42.041 -46.1426 C 40.2344 -46.1426 38.916 -44.873 38.916 -43.1152 C 38.916 -42.1875 39.2578 -41.4551 39.9414 -40.8203 L 52.5391 -28.7598 C 53.418 -27.8809 54.1992 -27.5879 55.0781 -27.5879 Z M 22.2168 5.46875 L 87.8906 5.46875 C 96.2402 5.46875 100.342 1.36719 100.342 -6.83594 L 100.342 -28.0762 C 100.342 -31.8848 99.8535 -33.6426 97.998 -36.0352 L 85.9375 -51.416 C 80.9082 -57.8125 79.1016 -59.082 71.9238 -59.082 L 64.6973 -59.082 L 64.6973 -52.9297 L 72.3633 -52.9297 C 75 -52.9297 76.8555 -52.5879 79.0527 -49.6582 L 91.5039 -33.4961 C 93.2129 -31.2988 92.627 -30.4688 90.2344 -30.4688 L 67.6758 -30.4688 C 65.332 -30.4688 64.209 -28.6621 64.209 -26.8066 L 64.209 -26.6602 C 64.209 -22.3145 60.7422 -17.2852 55.0781 -17.2852 C 49.3652 -17.2852 45.9473 -22.3145 45.9473 -26.6602 L 45.9473 -26.8066 C 45.9473 -28.6621 44.8242 -30.4688 42.4316 -30.4688 L 19.9219 -30.4688 C 17.4316 -30.4688 17.041 -31.4941 18.6035 -33.4961 L 30.957 -49.5605 C 33.3008 -52.5391 35.1074 -52.9297 37.793 -52.9297 L 45.459 -52.9297 L 45.459 -59.082 L 38.2324 -59.082 C 31.0059 -59.082 29.248 -57.8125 24.1211 -51.2695 L 12.1582 -36.0352 C 10.3027 -33.6426 9.76562 -31.8848 9.76562 -28.0762 L 9.76562 -6.83594 C 9.76562 1.36719 13.916 5.46875 22.2168 5.46875 Z"/>
  </g>
  <g id="Light-S" transform="matrix(1 0 0 1 1098.42 696)">
   <path d="M 54.7363 -29.0039 C 55.4199 -29.0039 56.0059 -29.1992 56.6895 -29.8828 L 69.873 -42.7246 C 70.3613 -43.2129 70.6543 -43.75 70.6543 -44.4824 C 70.6543 -45.8496 69.5801 -46.875 68.2129 -46.875 C 67.5293 -46.875 66.8457 -46.582 66.3574 -46.0449 L 60.2051 -39.5508 L 57.2266 -36.4258 L 57.4219 -42.0898 L 57.4219 -80.127 C 57.4219 -81.543 56.2012 -82.7148 54.7363 -82.7148 C 53.2715 -82.7148 52.0508 -81.543 52.0508 -80.127 L 52.0508 -42.0898 L 52.2461 -36.4258 L 49.2188 -39.5508 L 43.0664 -46.0449 C 42.5781 -46.582 41.8457 -46.875 41.2109 -46.875 C 39.7949 -46.875 38.7695 -45.8496 38.7695 -44.4824 C 38.7695 -43.75 39.0625 -43.2129 39.5996 -42.7246 L 52.7832 -29.8828 C 53.4668 -29.1992 54.0527 -29.0039 54.7363 -29.0039 Z M 21.3867 4.78516 L 88.0371 4.78516 C 95.752 4.78516 99.6582 0.927734 99.6582 -6.68945 L 99.6582 -27.7344 C 99.6582 -30.9082 99.2188 -32.4219 97.6562 -34.4238 L 84.1797 -51.709 C 79.834 -57.2266 78.0273 -58.3984 71.582 -58.3984 L 65.1855 -58.3984 L 65.1855 -53.6133 L 72.0215 -53.6133 C 74.8535 -53.6133 76.7578 -53.0762 78.8574 -50.3418 L 92.6758 -32.4219 C 93.9941 -30.6641 93.6035 -29.9316 91.6992 -29.9316 L 67.2363 -29.9316 C 65.332 -29.9316 64.4043 -28.5156 64.4043 -26.9531 L 64.4043 -26.7578 C 64.4043 -21.7773 60.5469 -16.8457 54.7363 -16.8457 C 48.877 -16.8457 45.0195 -21.7773 45.0195 -26.7578 L 45.0195 -26.9531 C 45.0195 -28.5156 44.0918 -29.9316 42.1875 -29.9316 L 17.7734 -29.9316 C 15.8203 -29.9316 15.5273 -30.8105 16.748 -32.4219 L 30.5176 -50.2441 C 32.7148 -53.0273 34.5703 -53.6133 37.4512 -53.6133 L 44.2871 -53.6133 L 44.2871 -58.3984 L 37.8906 -58.3984 C 31.4453 -58.3984 29.5898 -57.2266 25.1953 -51.6113 L 11.7676 -34.4238 C 10.2051 -32.4219 9.76562 -30.9082 9.76562 -27.7344 L 9.76562 -6.68945 C 9.76562 0.927734 13.6719 4.78516 21.3867 4.78516 Z"/>
  </g>
  <g id="Thin-S" transform="matrix(1 0 0 1 802.174 696)">
   <path d="M 54.2969 -30.8105 C 54.6875 -30.8105 55.0781 -30.957 55.4688 -31.3477 L 69.4336 -45.2148 C 69.7266 -45.5078 69.9219 -45.8496 69.9219 -46.2891 C 69.9219 -47.1191 69.2383 -47.7539 68.4082 -47.7539 C 68.0176 -47.7539 67.5781 -47.5586 67.2363 -47.2168 L 60.0586 -39.8926 L 55.8105 -35.5957 L 55.9082 -40.9668 L 55.9082 -79.2969 C 55.9082 -80.1758 55.1758 -80.9082 54.2969 -80.9082 C 53.3691 -80.9082 52.6367 -80.1758 52.6367 -79.2969 L 52.6367 -40.9668 L 52.7344 -35.5469 L 48.4863 -39.8926 L 41.2598 -47.2168 C 40.9668 -47.5586 40.5273 -47.7539 40.0879 -47.7539 C 39.2578 -47.7539 38.623 -47.1191 38.623 -46.2891 C 38.623 -45.8496 38.8184 -45.5078 39.1113 -45.2148 L 53.125 -31.3477 C 53.4668 -30.957 53.8574 -30.8105 54.2969 -30.8105 Z M 20.3125 3.95508 L 88.1836 3.95508 C 95.1172 3.95508 98.7305 0.292969 98.7305 -6.54297 L 98.7305 -27.2461 C 98.7305 -29.6387 98.3887 -30.7617 97.2168 -32.2754 L 81.8359 -52.0996 C 78.418 -56.4941 76.5625 -57.5195 71.0938 -57.5195 L 65.8203 -57.5195 L 65.8203 -54.4922 L 71.5332 -54.4922 C 74.707 -54.4922 76.6113 -53.7109 78.5645 -51.2207 L 94.2383 -31.0059 C 95.0684 -29.8828 94.8242 -29.248 93.6035 -29.248 L 66.6504 -29.248 C 65.2832 -29.248 64.6484 -28.3203 64.6484 -27.0996 L 64.6484 -26.8555 C 64.6484 -21.0449 60.2539 -16.3086 54.248 -16.3086 C 48.2422 -16.3086 43.8477 -21.0449 43.8477 -26.8555 L 43.8477 -27.0996 C 43.8477 -28.3203 43.2129 -29.248 41.8457 -29.248 L 14.8926 -29.248 C 13.6719 -29.248 13.4766 -29.9316 14.2578 -31.0059 L 29.9316 -51.1719 C 31.8848 -53.6621 33.8379 -54.4922 36.9629 -54.4922 L 42.7734 -54.4922 L 42.7734 -57.5195 L 37.4023 -57.5195 C 31.9336 -57.5195 30.0781 -56.4941 26.6113 -52.0508 L 11.2793 -32.2754 C 10.1074 -30.7617 9.76562 -29.6387 9.76562 -27.2461 L 9.76562 -6.54297 C 9.76562 0.390625 13.3789 3.95508 20.3125 3.95508 Z"/>
  </g>
  <g id="Ultralight-S" transform="matrix(1 0 0 1 505.707 696)">
   <path d="M 54.0527 -31.7871 C 54.3457 -31.7871 54.5898 -31.8848 54.834 -32.0801 L 69.1895 -46.4844 C 69.4336 -46.6797 69.5312 -46.9238 69.5312 -47.2168 C 69.5312 -47.7539 69.043 -48.2422 68.5059 -48.2422 C 68.2617 -48.2422 67.9199 -48.0957 67.7246 -47.8516 L 59.9609 -40.0879 L 55.0781 -35.1562 L 55.1758 -40.4297 L 55.1758 -78.9062 C 55.1758 -79.4922 54.6387 -79.9805 54.0527 -79.9805 C 53.4668 -79.9805 52.9785 -79.4922 52.9785 -78.9062 L 52.9785 -40.4297 L 53.0273 -35.1074 L 48.0957 -40.0879 L 40.332 -47.8516 C 40.1367 -48.0957 39.7949 -48.2422 39.5508 -48.2422 C 38.9648 -48.2422 38.5254 -47.7539 38.5254 -47.2168 C 38.5254 -46.9238 38.6719 -46.6797 38.8672 -46.4844 L 53.2715 -32.0801 C 53.5156 -31.8848 53.7598 -31.7871 54.0527 -31.7871 Z M 19.7754 3.51562 L 88.2812 3.51562 C 94.8242 3.51562 98.2422 -0.0488281 98.2422 -6.44531 L 98.2422 -27.002 C 98.2422 -29.0039 97.9492 -29.8828 96.9727 -31.1523 L 80.6641 -52.2949 C 77.6855 -56.1035 75.8301 -57.0312 70.8496 -57.0312 L 66.1133 -57.0312 L 66.1133 -54.9805 L 71.2891 -54.9805 C 74.5605 -54.9805 76.5137 -54.0039 78.418 -51.6602 L 95.0195 -30.2246 C 95.6055 -29.4434 95.459 -28.9062 94.5801 -28.9062 L 66.3086 -28.9062 C 65.2832 -28.9062 64.7461 -28.2227 64.7461 -27.2461 L 64.7461 -26.9531 C 64.7461 -20.7031 60.1074 -15.9668 54.0039 -15.9668 C 47.9492 -15.9668 43.2617 -20.7031 43.2617 -26.9531 L 43.2617 -27.2461 C 43.2617 -28.2227 42.7246 -28.9062 41.6992 -28.9062 L 13.4277 -28.9062 C 12.5488 -28.9062 12.4023 -29.4434 12.9883 -30.2246 L 29.5898 -51.6602 C 31.4941 -54.0039 33.4473 -54.9805 36.7188 -54.9805 L 41.9922 -54.9805 L 41.9922 -57.0312 L 37.1582 -57.0312 C 32.2266 -57.0312 30.3223 -56.1035 27.3926 -52.2949 L 11.0352 -31.1523 C 10.0586 -29.8828 9.76562 -29.0039 9.76562 -27.002 L 9.76562 -6.44531 C 9.76562 0.0488281 13.2324 3.51562 19.7754 3.51562 Z"/>
  </g>
 </g>
</svg>
