<?xml version="1.0" encoding="utf-8"?>
<!-- Generator: Adobe Illustrator 22.1.0, SVG Export Plug-In . SVG Version: 6.00 Build 0)  -->
<svg xmlns="http://www.w3.org/2000/svg" xmlns:xlink="http://www.w3.org/1999/xlink" version="1.1" id="Capa_1" x="0px" y="0px" viewBox="0 0 453.5 475.9" style="enable-background:new 0 0 453.5 475.9;" xml:space="preserve" width="453.5" height="475.9">
<g>
	<g>
		<path d="M74.3,312.2C33.3,312.2,0,278.9,0,237.9s33.3-74.3,74.3-74.3c40.9,0,74.3,33.3,74.3,74.3S115.2,312.2,74.3,312.2    L74.3,312.2z M74.3,202c-19.8,0-35.9,16.1-35.9,35.9s16.1,35.9,35.9,35.9c19.8,0,35.9-16.1,35.9-35.9S94.1,202,74.3,202L74.3,202z    "/>
	</g>
	<g>
		<g>
			<path d="M379.2,148.5c-40.9,0-74.3-33.3-74.3-74.3S338.3,0,379.2,0s74.3,33.3,74.3,74.3S420.2,148.5,379.2,148.5L379.2,148.5z      M379.2,38.3c-19.8,0-35.9,16.1-35.9,35.9s16.1,35.9,35.9,35.9c19.8,0,35.9-16.1,35.9-35.9S399.1,38.3,379.2,38.3L379.2,38.3z"/>
		</g>
		<g>
			<path d="M379.2,475.9c-40.9,0-74.3-33.3-74.3-74.3s33.3-74.3,74.3-74.3s74.3,33.3,74.3,74.3S420.2,475.9,379.2,475.9L379.2,475.9     z M379.2,365.7c-19.8,0-35.9,16.1-35.9,35.9s16.1,35.9,35.9,35.9c19.8,0,35.9-16.1,35.9-35.9S399.1,365.7,379.2,365.7     L379.2,365.7z"/>
		</g>
	</g>
	<g>
		<g>
			<path d="M322.5,391.7c-3.3,0-6.5-0.8-9.6-2.6L117.4,276.2c-9.2-5.3-12.3-17-7-26.2c5.3-9.2,17-12.3,26.2-7l195.6,112.9     c9.2,5.3,12.3,17,7,26.2C335.6,388.2,329.2,391.7,322.5,391.7L322.5,391.7z"/>
		</g>
		<g>
			<path d="M127,235.4c-6.6,0-13.1-3.4-16.6-9.6c-5.3-9.2-2.2-20.9,7-26.2L313,86.7c9.1-5.3,20.9-2.2,26.2,7     c5.3,9.2,2.1,20.9-7,26.2L136.5,232.9C133.5,234.6,130.2,235.4,127,235.4L127,235.4z"/>
		</g>
	</g>
</g>
</svg>
